<svg width="53" height="65" viewBox="0 0 53 65" fill="none" xmlns="http://www.w3.org/2000/svg">
<g clip-path="url(#clip0_161_922)">
<path d="M52.9937 0H41.8281V11.0285H52.9937V0Z" fill="#fff"/>
<path d="M52.9917 53.6803V15.6553H41.8262V64.7087C41.8262 64.7087 47.2579 64.6786 50.2759 61.6973C53.2938 58.716 52.9917 53.6788 52.9917 53.6788V53.6803Z" fill="#fff"/>
<path d="M33.8043 18.3308C30.7864 15.3495 25.6872 15.648 25.6872 15.648V15.6551H0.0332031V52.0345H11.1973V26.685H17.085C18.4444 26.685 19.249 26.675 20.6084 26.675C22.0462 26.675 23.0629 26.6205 24.3554 27.4526C25.8092 28.388 25.6814 30.5343 25.6814 32.4352C25.6814 33.8886 25.6814 35.3419 25.6814 36.7938V52.0345H36.847V26.6764H36.8513C36.8513 26.6764 36.8208 21.3107 33.8029 18.3308H33.8043Z" fill="#fff"/>
<path d="M0 56.1191H1.17349V63.5494H4.00554V64.7086H0V56.1191Z" fill="#fff"/>
<path d="M10.2734 56.1191H11.4469V64.7086H10.2734V56.1191Z" fill="#fff"/>
<path d="M17.7241 56.1338H18.9775L21.7079 62.2169L24.4586 56.1338H25.7221L21.6919 65.0002L17.7227 56.1338H17.7241Z" fill="#fff"/>
<path d="M31.8809 56.1191H36.6997V57.2927H33.0558V59.4361H36.6997V60.5953H33.0558V63.5479H36.6997V64.7072H31.8809V56.1177V56.1191Z" fill="#fff"/>
</g>
<defs>
<clipPath id="clip0_161_922">
<rect width="53" height="65" fill="white"/>
</clipPath>
</defs>
</svg>
