<svg width="1856" height="662" viewBox="0 0 1856 662" fill="none" xmlns="http://www.w3.org/2000/svg">
<g style="mix-blend-mode:overlay">
<path d="M1824.4 5.19134L1809.99 0.369141M1824.4 5.19134H1781.7M1824.4 5.19134L1839.29 10.1728M1824.4 5.19134H1854.64M1809.99 0.369141L1815.24 0.371021L1820.43 0.381462L1825.51 0.410819L1830.43 0.468637L1835.14 0.562465L1839.58 0.703698L1843.71 0.899886L1847.54 1.15007L1850.83 1.49603L1853.82 1.89693L1854.64 2.03736V5.19134M1809.99 0.369141H1767.98M1767.98 0.369141H1725.97M1767.98 0.369141L1781.7 5.19134M1725.97 0.369141H1683.96M1725.97 0.369141L1739.01 5.19134M1683.96 0.369141H1641.95M1683.96 0.369141L1696.31 5.19134M1641.95 0.369141H1599.94M1641.95 0.369141L1653.61 5.19134M1599.94 0.369141H1557.93M1599.94 0.369141L1610.92 5.19134M1557.93 0.369141H1515.91M1557.93 0.369141L1568.22 5.19134M1515.91 0.369141H1473.9M1515.91 0.369141L1525.52 5.19134M1473.9 0.369141H1431.89M1473.9 0.369141L1482.82 5.19134M1431.89 0.369141H1389.88M1431.89 0.369141L1440.13 5.19134M1389.88 0.369141H1347.87M1389.88 0.369141L1397.43 5.19134M1347.87 0.369141H1305.86M1347.87 0.369141L1354.73 5.19134M1305.86 0.369141H1263.85M1305.86 0.369141L1307.38 1.56047L1309.69 3.36408L1312.03 5.19134M1263.85 0.369141H1221.84M1263.85 0.369141L1265.2 1.56047L1269.34 5.19134M1221.84 0.369141H1179.82M1221.84 0.369141L1226.64 5.19134M1179.82 0.369141H1137.81M1179.82 0.369141L1181.35 2.15944L1182.9 3.97063L1183.42 4.58005L1183.94 5.19134M1137.81 0.369141H1095.8M1137.81 0.369141L1139.09 2.15944L1139.51 2.76033L1139.94 3.36408L1141.24 5.19134M1095.8 0.369141H1053.79M1095.8 0.369141L1098.55 5.19134M1053.79 0.369141L1054.04 0.963373L1054.3 1.56047L1055.59 4.58005L1055.85 5.19134M1053.79 0.369141H1011.78M1011.78 0.369141H969.767M1011.78 0.369141L1013.15 5.19134M969.767 0.369141H927.756M969.767 0.369141L970.022 2.15944L970.453 5.19134M927.756 0.369141H885.745M927.756 0.369141V5.19134M885.745 0.369141H843.733M885.745 0.369141L885.49 2.15944L885.058 5.19134M843.733 0.369141H801.721M843.733 0.369141L842.361 5.19134M801.721 0.369141L801.468 0.963373L801.214 1.56047L799.925 4.58005L799.663 5.19134M801.721 0.369141H759.71M759.71 0.369141H717.698M759.71 0.369141L757.314 4.58005L756.966 5.19134M717.698 0.369141H675.687M717.698 0.369141L716.426 2.15944L715.997 2.76033L715.136 3.97063L714.703 4.58005L714.268 5.19134M675.687 0.369141H633.676M675.687 0.369141L674.16 2.15944L672.612 3.97063L672.093 4.58005L671.57 5.19134M633.676 0.369141H591.665M633.676 0.369141L628.874 5.19134M591.665 0.369141H549.653M591.665 0.369141L590.31 1.56047L586.176 5.19134M549.653 0.369141H507.642M549.653 0.369141L543.479 5.19134M507.642 0.369141H465.631M507.642 0.369141L500.781 5.19134M465.631 0.369141H423.619M465.631 0.369141L458.084 5.19134M423.619 0.369141H381.608M423.619 0.369141L415.386 5.19134M381.608 0.369141H339.597M381.608 0.369141L372.688 5.19134M339.597 0.369141H297.586M339.597 0.369141L329.991 5.19134M297.586 0.369141H255.574M297.586 0.369141L287.293 5.19134M255.574 0.369141H213.562M255.574 0.369141L244.596 5.19134M213.562 0.369141H171.551M213.562 0.369141L201.898 5.19134M171.551 0.369141H129.539M171.551 0.369141L159.201 5.19134M129.539 0.369141H87.5283M129.539 0.369141L116.504 5.19134M87.5283 0.369141H45.5172M87.5283 0.369141L73.8065 5.19134M45.5172 0.369141L40.2745 0.371021L35.0859 0.381462L30.0054 0.410819L25.0842 0.468637L20.3764 0.562465L15.9322 0.703698L11.8046 0.899886L7.97349 1.15007L4.68594 1.49603L1.69287 1.89693L0.870266 2.03739V5.19134M45.5172 0.369141L31.1089 5.19134M116.504 5.19134H159.201M116.504 5.19134H73.8065M116.504 5.19134L103.034 10.1728M159.201 5.19134L146.441 10.1728M159.201 5.19134H201.898M287.293 5.19134H329.991M287.293 5.19134H244.596M287.293 5.19134L284.668 6.42154L276.66 10.1728M329.991 5.19134L320.066 10.1728M329.991 5.19134H372.688M458.084 5.19134H500.781M458.084 5.19134H415.386M458.084 5.19134L456.158 6.42154L455.189 7.03949L450.285 10.1728M500.781 5.19134L499.907 5.80455L499.031 6.42154L493.692 10.1728M500.781 5.19134H543.479M628.874 5.19134L628.262 5.80455L623.911 10.1728M628.874 5.19134H671.57M628.874 5.19134H586.176M671.57 5.19134L670.521 6.42154L669.992 7.03949L669.462 7.66123L667.317 10.1728M671.57 5.19134H714.268M799.663 5.19134H842.361M799.663 5.19134H756.966M799.663 5.19134L797.537 10.1728M842.361 5.19134L842.186 5.80455L842.011 6.42154L841.834 7.03949L841.301 8.91133L840.943 10.1728M842.361 5.19134H885.058M970.453 5.19134H1013.15M970.453 5.19134H927.756M970.453 5.19134L971.162 10.1728M1013.15 5.19134L1013.33 5.80455L1013.5 6.42154L1013.68 7.03949L1014.57 10.1728M1013.15 5.19134H1055.85M1141.24 5.19134H1183.94M1141.24 5.19134H1098.55M1141.24 5.19134L1142.12 6.42154L1143.89 8.91133L1144.34 9.54065L1144.79 10.1728M1183.94 5.19134L1184.99 6.42154L1185.52 7.03949L1186.05 7.66123L1188.19 10.1728M1183.94 5.19134H1226.64M1312.03 5.19134H1354.73M1312.03 5.19134H1269.34M1312.03 5.19134L1313.61 6.42154L1314.4 7.03949L1318.41 10.1728M1354.73 5.19134L1355.6 5.80455L1356.48 6.42154L1361.82 10.1728M1354.73 5.19134H1397.43M1482.82 5.19134H1525.52M1482.82 5.19134H1440.13M1482.82 5.19134L1485.1 6.42154L1486.24 7.03949L1492.04 10.1728M1525.52 5.19134L1535.45 10.1728M1525.52 5.19134H1568.22M1653.61 5.19134H1696.31M1653.61 5.19134H1610.92M1653.61 5.19134L1665.66 10.1728M1696.31 5.19134L1709.07 10.1728M1696.31 5.19134H1739.01M0.720614 50.2859H0.870266M43.6962 50.2859L59.9978 43.9217M43.6962 50.2859L26.77 56.8937M43.6962 50.2859H92.8105M43.6962 50.2859H0.870266M59.9978 43.9217H11.7892M59.9978 43.9217L75.7095 37.7878M59.9978 43.9217H108.206M11.7892 43.9217L28.3737 37.7878M11.7892 43.9217H0.870266M11.7892 43.9217L0.870266 47.9593M59.8028 26.1625H105.485M59.8028 26.1625L74.7083 20.6494M59.8028 26.1625H14.1218M59.8028 26.1625L44.3673 31.8718M105.485 26.1625L119.606 20.6494M105.485 26.1625L90.8622 31.8718M105.485 26.1625H151.167M74.7083 20.6494H119.606M74.7083 20.6494L89.1107 15.3229M74.7083 20.6494H29.8113M119.606 20.6494H164.503M119.606 20.6494L133.25 15.3229M0.400065 150.739H0.870266M40.0302 150.739L61.0512 140.188M40.0302 150.739L17.9645 161.816M40.0302 150.739H103.44M40.0302 150.739H0.870266M61.0512 140.188L81.0999 130.125M61.0512 140.188H122.958M61.0512 140.188H0.870266M20.6245 130.125H81.0999M20.6245 130.125L41.1338 120.516M20.6245 130.125H0.870266M20.6245 130.125L0.870266 139.379M60.7355 111.332H118.536M60.7355 111.332L79.4895 102.547M60.7355 111.332H2.93452M60.7355 111.332L41.1338 120.516M118.536 111.332L136.041 102.547M118.536 111.332L100.241 120.516M118.536 111.332H176.338M79.4895 102.547H136.041M79.4895 102.547H22.9388M79.4895 102.547L97.4498 94.1323M136.041 102.547L152.803 94.1323M136.041 102.547H192.592M131.181 78.3293H184.285M131.181 78.3293L147.039 70.8998M131.181 78.3293H78.076M131.181 78.3293L114.665 86.0668M184.285 78.3293L199.087 70.8998M184.285 78.3293L168.871 86.0668M184.285 78.3293H237.391M147.039 70.8998H199.087M147.039 70.8998H94.9916M147.039 70.8998L162.279 63.7603M199.087 70.8998L213.31 63.7603M199.087 70.8998H251.135M191.039 50.2859H240.153M191.039 50.2859L204.624 43.9217M191.039 50.2859H141.925M191.039 50.2859L176.934 56.8937M240.153 50.2859L252.832 43.9217M240.153 50.2859L226.989 56.8937M240.153 50.2859H289.268M204.624 43.9217H252.832M204.624 43.9217H156.415M204.624 43.9217L217.717 37.7878M252.832 43.9217L265.053 37.7878M252.832 43.9217H301.041M242.53 26.1625H288.212M242.53 26.1625L254.297 20.6494M242.53 26.1625H196.849M242.53 26.1625L230.344 31.8718M288.212 26.1625L299.194 20.6494M288.212 26.1625L276.838 31.8718M288.212 26.1625H333.893M254.297 20.6494H299.194M254.297 20.6494L265.668 15.3229M254.297 20.6494H209.4M299.194 20.6494H344.092M299.194 20.6494L309.807 15.3229M33.3566 333.671L62.9417 312.88M33.3566 333.671L1.67453 355.935M33.3566 333.671H122.796M33.3566 333.671H0.870266M62.9417 312.88L90.6333 293.42M62.9417 312.88H149.423M62.9417 312.88H0.870266M62.3411 258.014H141.015M62.3411 258.014L87.6229 241.863M62.3411 258.014L35.4904 275.168M62.3411 258.014H0.870266M141.015 258.014L163.998 241.863M141.015 258.014L116.605 275.168M141.015 258.014H219.69M87.6229 241.863H163.998M87.6229 241.863H11.2475M87.6229 241.863L111.47 226.628M163.998 241.863L185.678 226.628M163.998 241.863H240.375M155.319 198.614H225.542M155.319 198.614L175.524 185.706M155.319 198.614H85.0981M155.319 198.614L134 212.235M225.542 198.614L243.909 185.706M225.542 198.614L206.159 212.235M225.542 198.614H295.763M175.524 185.706H243.909M175.524 185.706H107.14M175.524 185.706L194.698 173.456M243.909 185.706L261.341 173.456M243.909 185.706H312.293M230.257 150.739H293.667M230.257 150.739L246.774 140.188M230.257 150.739H166.848M230.257 150.739L212.92 161.816M293.667 150.739L308.681 140.188M293.667 150.739L277.905 161.816M293.667 150.739H357.075M246.774 140.188H308.681M246.774 140.188H184.867M246.774 140.188L262.526 130.125M308.681 140.188L323.002 130.125M308.681 140.188H370.588M291.941 111.332H349.742M291.941 111.332L305.694 102.547M291.941 111.332H234.139M291.941 111.332L277.566 120.516M349.742 111.332L362.246 102.547M349.742 111.332L336.674 120.516M349.742 111.332H407.543M305.694 102.547H362.246M305.694 102.547H249.143M305.694 102.547L318.864 94.1323M362.246 102.547L374.219 94.1323M362.246 102.547H418.796M343.601 78.3293H396.705M343.601 78.3293L355.23 70.8998M343.601 78.3293H290.496M343.601 78.3293L331.489 86.0668M396.705 78.3293L398.051 77.3844L407.278 70.8998M396.705 78.3293L385.696 86.0668M396.705 78.3293H449.811M355.23 70.8998H407.278M355.23 70.8998H303.183M355.23 70.8998L366.406 63.7603M407.278 70.8998L417.438 63.7603M407.278 70.8998H459.326M387.496 50.2859H436.612M387.496 50.2859L397.459 43.9217M387.496 50.2859H338.382M387.496 50.2859L377.153 56.8937M436.612 50.2859L445.668 43.9217M436.612 50.2859L433.127 52.7349L427.208 56.8937M436.612 50.2859H485.726M397.459 43.9217H445.668M397.459 43.9217H349.251M397.459 43.9217L407.06 37.7878M445.668 43.9217L454.396 37.7878M445.668 43.9217H493.877M425.256 26.1625H470.938M425.256 26.1625L433.886 20.6494M425.256 26.1625H379.575M425.256 26.1625L416.321 31.8718M470.938 26.1625L476.848 22.0104L477.818 21.328L478.784 20.6494M470.938 26.1625L462.815 31.8718M470.938 26.1625H516.62M433.886 20.6494H478.784M433.886 20.6494L442.224 15.3229M433.886 20.6494H388.989M478.784 20.6494H523.681M478.784 20.6494L486.363 15.3229M65.7619 570.509H188.904M65.7619 570.509L104.537 531.583M65.7619 570.509L23.1541 613.285M65.7619 570.509L0.870266 570.51M188.904 570.509L222.14 531.583M188.904 570.509L152.383 613.285M188.904 570.509H312.046M104.537 531.583H222.14M104.537 531.583L139.974 496.008M104.537 531.583H0.870266M222.14 531.583L252.514 496.008M222.14 531.583H339.743M202.42 433.317H306.04M202.42 433.317L230.072 405.556M202.42 433.317H98.8005M202.42 433.317L172.485 463.369M306.04 433.317L329.741 405.556M306.04 433.317L280.381 463.369M306.04 433.317H409.659M230.072 405.556H329.741M230.072 405.556H130.403M230.072 405.556L255.693 379.835M329.741 405.556L351.702 379.835M329.741 405.556H429.41M301.676 333.671H391.116M301.676 333.671L322.387 312.88M301.676 333.671H212.236M301.676 333.671L279.499 355.935M391.116 333.671L408.868 312.88M391.116 333.671L372.107 355.935M391.116 333.671H480.556M322.387 312.88H408.868M322.387 312.88H235.904M322.387 312.88L341.77 293.42M408.868 312.88L425.482 293.42M408.868 312.88H495.349M377.037 258.014H455.711M377.037 258.014L393.126 241.863M377.037 258.014H298.364M377.037 258.014L359.951 275.168M455.711 258.014L469.502 241.863M455.711 258.014L441.066 275.168M455.711 258.014H534.386M393.126 241.863H469.502M393.126 241.863H316.75M393.126 241.863L408.301 226.628M469.502 241.863L482.509 226.628M469.502 241.863H545.877M436.205 198.614H506.427M436.205 198.614L449.063 185.706M436.205 198.614H365.984M436.205 198.614L422.638 212.235M506.427 198.614L517.448 185.706M506.427 198.614L494.798 212.235M506.427 198.614H576.649M449.063 185.706H517.448M449.063 185.706H380.678M449.063 185.706L461.265 173.456M517.448 185.706L527.906 173.456M517.448 185.706H585.833M483.893 150.739H547.302M483.893 150.739L494.404 140.188M483.893 150.739H420.484M483.893 150.739L472.861 161.816M547.302 150.739L556.311 140.188M547.302 150.739L537.845 161.816M547.302 150.739H610.711M494.404 140.188H556.311M494.404 140.188H432.496M494.404 140.188L504.428 130.125M556.311 140.188L564.903 130.125M556.311 140.188H618.219M523.146 111.332H580.948M523.146 111.332L531.898 102.547M523.146 111.332H465.345M523.146 111.332L513.999 120.516M580.948 111.332L588.449 102.547M580.948 111.332L573.107 120.516M580.948 111.332H638.749M531.898 102.547H588.449M531.898 102.547H475.347M531.898 102.547L540.28 94.1323M588.449 102.547L595.633 94.1323M588.449 102.547H645.001M556.021 78.3293H609.126M556.021 78.3293L563.421 70.8998M556.021 78.3293H502.916M556.021 78.3293L548.313 86.0668M609.126 78.3293L608.314 79.279L602.519 86.0668M609.126 78.3293L615.469 70.8998M609.126 78.3293H662.231M563.421 70.8998H615.469M563.421 70.8998H511.374M563.421 70.8998L570.533 63.7603M615.469 70.8998L621.565 63.7603M615.469 70.8998H667.517M583.955 50.2859H633.069M583.955 50.2859L590.294 43.9217M583.955 50.2859H534.84M583.955 50.2859L577.373 56.8937M633.069 50.2859L638.503 43.9217M633.069 50.2859L630.979 52.7349L629.568 54.3869L627.427 56.8937M633.069 50.2859H682.183M590.294 43.9217H638.503M590.294 43.9217H542.085M590.294 43.9217L596.404 37.7878M638.503 43.9217L640.49 41.5949L641.799 40.0614L643.741 37.7878M638.503 43.9217H686.711M607.984 26.1625H653.665M607.984 26.1625L612.12 22.0104L613.475 20.6494M607.984 26.1625H562.302M607.984 26.1625L603.019 31.1468L602.297 31.8718M653.665 26.1625L657.211 22.0104L657.793 21.328L658.373 20.6494M653.665 26.1625L651.249 28.9916L648.791 31.8718M653.665 26.1625H699.347M613.475 20.6494H658.373M613.475 20.6494L618.781 15.3229M613.475 20.6494H568.578M658.373 20.6494H703.27M658.373 20.6494L662.92 15.3229M558.33 570.509H681.472M558.33 570.509L574.947 531.583M558.33 570.509H435.188M558.33 570.509L540.07 613.285M681.472 570.509L692.551 531.583M681.472 570.509L669.299 613.285M681.472 570.509H804.614M574.947 531.583H692.551M574.947 531.583H457.345M574.947 531.583L590.135 496.008M692.551 531.583L702.675 496.008M692.551 531.583H810.153M616.898 433.317H720.517M616.898 433.317L628.748 405.556M616.898 433.317H513.278M616.898 433.317L604.068 463.369M720.517 433.317L728.417 405.556M720.517 433.317L711.964 463.369M720.517 433.317H824.137M628.748 405.556H728.417M628.748 405.556H529.079M628.748 405.556L639.729 379.835M728.417 405.556L735.738 379.835M728.417 405.556H828.087M659.436 333.671H748.876M659.436 333.671L668.312 312.88M659.436 333.671H569.996M659.436 333.671L649.932 355.935M748.876 333.671L754.793 312.88M748.876 333.671L742.54 355.935M748.876 333.671H838.316M668.312 312.88H754.793M668.312 312.88H581.831M668.312 312.88L676.619 293.42M754.793 312.88L760.331 293.42M754.793 312.88H841.274M691.734 258.014H770.407M691.734 258.014L698.629 241.863M691.734 258.014H613.06M691.734 258.014L684.411 275.168M770.407 258.014L775.004 241.863M770.407 258.014L765.526 275.168M770.407 258.014H849.082M698.629 241.863H775.004M698.629 241.863H622.253M698.629 241.863L705.132 226.628M775.004 241.863L779.34 226.628M775.004 241.863H851.38M717.091 198.614H787.313M717.091 198.614L722.601 185.706M717.091 198.614H646.87M717.091 198.614L711.277 212.235M787.313 198.614L790.986 185.706M787.313 198.614L783.437 212.235M787.313 198.614H857.535M722.601 185.706H790.986M722.601 185.706H654.217M722.601 185.706L727.831 173.456M790.986 185.706L794.473 173.456M790.986 185.706H859.371M737.529 150.739H800.938M737.529 150.739L742.033 140.188M737.529 150.739H674.12M737.529 150.739L732.801 161.816M800.938 150.739L803.941 140.188M800.938 150.739L797.785 161.816M800.938 150.739H864.347M742.033 140.188H803.941M742.033 140.188H680.126M742.033 140.188L743.669 136.359L746.33 130.125M803.941 140.188L806.805 130.125M803.941 140.188H865.849M754.352 111.332H812.153M754.352 111.332L758.103 102.547M754.352 111.332H696.55M754.352 111.332L751.428 118.182L750.431 120.516M812.153 111.332L813.104 107.992L814.654 102.547M812.153 111.332L809.539 120.516M812.153 111.332H869.955M758.103 102.547L758.56 101.475L761.695 94.1323M758.103 102.547H814.654M758.103 102.547H701.551M814.654 102.547L815.564 99.3488L815.863 98.2939L816.163 97.2457L817.048 94.1323M814.654 102.547H871.205M768.441 78.3293H821.545M768.441 78.3293L770.042 74.5771L770.438 73.6511L770.831 72.729L771.223 71.8125L771.612 70.8998M768.441 78.3293H715.336M768.441 78.3293L765.138 86.0668M821.545 78.3293L823.139 72.729L823.401 71.8125L823.66 70.8998M821.545 78.3293L819.344 86.0668M821.545 78.3293H874.651M771.612 70.8998H823.66M771.612 70.8998H719.565M771.612 70.8998L773.532 66.4045L773.909 65.5184L774.66 63.7603M823.66 70.8998L824.939 66.4045L825.192 65.5184L825.442 64.637L825.692 63.7603M823.66 70.8998H875.708M780.413 50.2859H829.527M780.413 50.2859L783.13 43.9217M780.413 50.2859H731.298M780.413 50.2859L779.717 51.9142L778.661 54.3869L777.592 56.8937M829.527 50.2859L829.295 51.0982L827.885 56.054L827.646 56.8937M829.527 50.2859L831.338 43.9217M829.527 50.2859H878.641M783.13 43.9217H831.338M783.13 43.9217H734.921M783.13 43.9217L785.748 37.7878M831.338 43.9217L832.001 41.5949L832.219 40.8263L832.437 40.0614L833.084 37.7878M831.338 43.9217H879.547M790.711 26.1625H836.392M790.711 26.1625L792.484 22.0104L793.064 20.6494M790.711 26.1625H745.029M790.711 26.1625L789.806 28.2798L789.503 28.9916L789.197 29.7071L788.273 31.8718M836.392 26.1625L836.592 25.4631L836.987 24.0727L837.38 22.6947L837.961 20.6494M836.392 26.1625L835.587 28.9916L835.384 29.7071L834.974 31.1468L834.768 31.8718M836.392 26.1625H882.074M793.064 20.6494H837.961M793.064 20.6494L795.058 15.9788L795.339 15.3229M793.064 20.6494H748.167M837.961 20.6494L838.154 19.9736L838.345 19.3007L838.536 18.6306L838.726 17.9634L839.29 15.9788L839.478 15.3229M837.961 20.6494H882.859M1050.9 570.509H1174.04M1050.9 570.509L1045.36 531.583M1050.9 570.509H927.756M1050.9 570.509L1056.98 613.285M1174.04 570.509L1162.96 531.583M1174.04 570.509L1186.21 613.285M1174.04 570.509H1297.18M1045.36 531.583H1162.96M1045.36 531.583H927.756M1045.36 531.583L1040.3 496.008M1162.96 531.583L1152.84 496.008M1162.96 531.583H1280.56M1031.37 433.317H1134.99M1031.37 433.317L1027.42 405.556M1031.37 433.317H927.756M1031.37 433.317L1035.65 463.369M1134.99 433.317L1127.09 405.556M1134.99 433.317L1143.55 463.369M1134.99 433.317H1238.61M1027.42 405.556H1127.09M1027.42 405.556H927.756M1027.42 405.556L1023.76 379.835M1127.09 405.556L1119.77 379.835M1127.09 405.556H1226.76M1017.2 333.671H1106.64M1017.2 333.671L1014.24 312.88M1017.2 333.671H927.756M1017.2 333.671L1020.36 355.935M1106.64 333.671L1100.72 312.88M1106.64 333.671L1112.97 355.935M1106.64 333.671H1196.08M1014.24 312.88H1100.72M1014.24 312.88H927.756M1014.24 312.88L1011.47 293.42M1100.72 312.88L1095.18 293.42M1100.72 312.88H1187.2M1006.43 258.014H1085.1M1006.43 258.014L1004.13 241.863M1006.43 258.014H927.756M1006.43 258.014L1008.87 275.168M1085.1 258.014L1080.51 241.863M1085.1 258.014L1089.99 275.168M1085.1 258.014H1163.78M1004.13 241.863H1080.51M1004.13 241.863H927.756M1004.13 241.863L1001.96 226.628M1080.51 241.863L1076.17 226.628M1080.51 241.863H1156.88M997.977 198.614H1068.2M997.977 198.614L996.141 185.706M997.977 198.614H927.756M997.977 198.614L999.916 212.235M1068.2 198.614L1064.53 185.706M1068.2 198.614L1072.07 212.235M1068.2 198.614H1138.42M996.141 185.706H1064.53M996.141 185.706H927.756M996.141 185.706L994.397 173.456M1064.53 185.706L1061.04 173.456M1064.53 185.706H1132.91M991.164 150.739H1054.57M991.164 150.739L989.663 140.188M991.164 150.739H927.756M991.164 150.739L992.741 161.816M1054.57 150.739L1051.57 140.188M1054.57 150.739L1057.73 161.816M1054.57 150.739H1117.98M989.663 140.188H1051.57M989.663 140.188H927.756M989.663 140.188L988.231 130.125M1051.57 140.188L1048.71 130.125M1051.57 140.188H1113.48M985.557 111.332H1043.36M985.557 111.332L984.306 102.547M985.557 111.332H927.756M985.557 111.332L986.864 120.516M1043.36 111.332L1041.16 103.624L1040.86 102.547M1043.36 111.332L1045.97 120.516M1043.36 111.332H1101.16M984.306 102.547L984.155 101.475L983.109 94.1323M984.306 102.547H1040.86M984.306 102.547H927.756M1040.86 102.547L1039.95 99.3488L1039.65 98.2939L1039.35 97.2457L1038.46 94.1323M1040.86 102.547H1097.41M980.861 78.3293H1033.97M980.861 78.3293L979.803 70.8998M980.861 78.3293H927.756M980.861 78.3293L981.268 81.1934L981.406 82.1583L981.543 83.1278L981.821 85.0821L981.962 86.0668M1033.97 78.3293L1032.37 72.729L1031.85 70.8998M1033.97 78.3293L1036.17 86.0668M1033.97 78.3293H1087.07M979.803 70.8998H1031.85M979.803 70.8998H927.756M979.803 70.8998L978.788 63.7603M1031.85 70.8998L1030.57 66.4045L1030.32 65.5184L1030.07 64.637L1029.82 63.7603M1031.85 70.8998H1083.9M976.87 50.2859H1025.98M976.87 50.2859L975.964 43.9217M976.87 50.2859H927.756M976.87 50.2859L977.81 56.8937M1025.98 50.2859L1026.22 51.0982L1027.63 56.054L1027.87 56.8937M1025.98 50.2859L1024.17 43.9217M1025.98 50.2859H1075.1M975.964 43.9217H1024.17M975.964 43.9217H927.756M975.964 43.9217L975.092 37.7878M1024.17 43.9217L1023.51 41.5949L1023.29 40.8263L1023.07 40.0614L1022.43 37.7878M1024.17 43.9217H1072.38M973.438 26.1625H1019.12M973.438 26.1625L972.653 20.6494M973.438 26.1625H927.756M973.438 26.1625L974.25 31.8718M1019.12 26.1625L1018.92 25.4631L1018.52 24.0727L1018.33 23.3818L1017.94 22.0104L1017.74 21.328L1017.55 20.6494M1019.12 26.1625L1019.92 28.9916L1020.13 29.7071L1020.54 31.1468L1020.74 31.8718M1019.12 26.1625H1064.8M972.653 20.6494L972.557 19.9736L972.461 19.3007L972.366 18.6306L971.895 15.3229M972.653 20.6494H1017.55M972.653 20.6494H927.756M1017.55 20.6494H1062.45M1017.55 20.6494L1017.17 19.3007L1016.98 18.6306L1016.79 17.9634L1016.22 15.9788L1016.03 15.3229M1543.47 570.509H1666.61M1543.47 570.509L1515.77 531.583M1543.47 570.509H1420.32M1543.47 570.509L1573.9 613.285M1666.61 570.509L1633.37 531.583M1666.61 570.509L1703.13 613.285M1666.61 570.509H1789.75M1515.77 531.583H1633.37M1515.77 531.583H1398.17M1515.77 531.583L1490.46 496.008M1633.37 531.583L1603 496.008M1633.37 531.583H1750.97M1445.85 433.317H1549.47M1445.85 433.317L1426.1 405.556M1445.85 433.317H1342.23M1445.85 433.317L1467.23 463.369M1549.47 433.317L1525.77 405.556M1549.47 433.317L1575.13 463.369M1549.47 433.317H1653.09M1426.1 405.556H1525.77M1426.1 405.556H1326.43M1426.1 405.556L1407.8 379.835M1525.77 405.556L1503.81 379.835M1525.77 405.556H1625.44M1374.96 333.671H1464.4M1374.96 333.671L1360.16 312.88M1374.96 333.671H1285.52M1374.96 333.671L1390.8 355.935M1464.4 333.671L1446.64 312.88M1464.4 333.671L1483.4 355.935M1464.4 333.671H1553.84M1360.16 312.88H1446.64M1360.16 312.88H1273.68M1360.16 312.88L1346.32 293.42M1446.64 312.88L1430.03 293.42M1446.64 312.88H1533.12M1321.13 258.014H1399.8M1321.13 258.014L1309.63 241.863M1321.13 258.014H1242.45M1321.13 258.014L1333.33 275.168M1399.8 258.014L1386.01 241.863M1399.8 258.014L1414.45 275.168M1399.8 258.014H1478.47M1309.63 241.863H1386.01M1309.63 241.863H1233.26M1309.63 241.863L1298.79 226.628M1386.01 241.863L1373 226.628M1386.01 241.863H1462.39M1278.86 198.614H1349.08M1278.86 198.614L1269.68 185.706M1278.86 198.614H1208.64M1278.86 198.614L1288.55 212.235M1349.08 198.614L1338.06 185.706M1349.08 198.614L1360.71 212.235M1349.08 198.614H1419.31M1269.68 185.706H1338.06M1269.68 185.706H1201.29M1269.68 185.706L1260.96 173.456M1338.06 185.706L1327.61 173.456M1338.06 185.706H1406.45M1244.8 150.739H1308.21M1244.8 150.739L1237.29 140.188M1244.8 150.739H1181.39M1244.8 150.739L1252.68 161.816M1308.21 150.739L1299.2 140.188M1308.21 150.739L1317.67 161.816M1308.21 150.739H1371.62M1237.29 140.188H1299.2M1237.29 140.188H1175.39M1237.29 140.188L1230.13 130.125M1299.2 140.188L1290.61 130.125M1299.2 140.188H1361.11M1216.76 111.332L1217.56 112.458L1218.37 113.59L1223.3 120.516M1216.76 111.332H1274.56M1216.76 111.332L1210.51 102.547M1216.76 111.332H1158.96M1274.56 111.332L1267.06 102.547M1274.56 111.332L1282.4 120.516M1274.56 111.332H1332.37M1210.51 102.547H1267.06M1210.51 102.547H1153.96M1210.51 102.547L1204.52 94.1323M1267.06 102.547L1259.88 94.1323M1267.06 102.547H1323.61M1193.28 78.3293H1246.39M1193.28 78.3293L1187.99 70.8998M1193.28 78.3293H1140.18M1193.28 78.3293L1198.79 86.0668M1246.39 78.3293L1242.39 73.6511L1240.04 70.8998M1246.39 78.3293L1252.99 86.0668M1246.39 78.3293H1299.49M1187.99 70.8998H1240.04M1187.99 70.8998H1135.95M1187.99 70.8998L1183.54 64.637L1182.91 63.7603M1240.04 70.8998L1233.95 63.7603M1240.04 70.8998H1292.09M1173.33 50.2859H1222.44M1173.33 50.2859L1172.18 48.6719L1168.8 43.9217M1173.33 50.2859H1124.21M1173.33 50.2859L1174.49 51.9142L1176.84 55.2181L1178.03 56.8937M1222.44 50.2859L1217.01 43.9217M1222.44 50.2859L1224.53 52.7349L1225.94 54.3869L1228.08 56.8937M1222.44 50.2859H1271.56M1168.8 43.9217H1217.01M1168.8 43.9217H1120.59M1168.8 43.9217L1165.51 39.2995L1164.43 37.7878M1217.01 43.9217L1215.02 41.5949L1213.71 40.0614L1211.77 37.7878M1217.01 43.9217H1265.22M1156.16 26.1625H1201.85M1156.16 26.1625L1153.7 22.6947L1152.24 20.6494M1156.16 26.1625H1110.48M1156.16 26.1625L1160.23 31.8718M1201.85 26.1625L1198.3 22.0104L1197.72 21.328L1197.14 20.6494M1201.85 26.1625L1204.26 28.9916L1206.72 31.8718M1201.85 26.1625H1247.53M1152.24 20.6494H1197.14M1152.24 20.6494L1150.33 17.9634L1149.39 16.6375L1148.92 15.9788L1148.45 15.3229M1152.24 20.6494H1107.34M1197.14 20.6494H1242.04M1197.14 20.6494L1192.59 15.3229M1824.78 405.556H1725.11M1824.78 405.556L1791.84 379.835M1824.78 405.556H1854.64M1824.78 405.556L1854.64 428.874M1732.72 333.671H1822.15M1732.72 333.671L1706.09 312.88M1732.72 333.671H1643.28M1732.72 333.671L1761.23 355.935M1822.15 333.671L1792.57 312.88M1822.15 333.671L1853.84 355.935M1822.15 333.671H1854.64M1706.09 312.88H1792.57M1706.09 312.88H1619.61M1706.09 312.88L1681.17 293.42M1792.57 312.88L1764.88 293.42M1792.57 312.88H1854.64M1635.82 258.014H1714.5M1635.82 258.014L1615.14 241.863M1635.82 258.014H1557.15M1635.82 258.014L1657.79 275.168M1714.5 258.014L1691.51 241.863M1714.5 258.014L1738.91 275.168M1714.5 258.014H1793.17M1615.14 241.863H1691.51M1615.14 241.863H1538.76M1615.14 241.863L1595.63 226.628M1691.51 241.863L1669.83 226.628M1691.51 241.863H1767.89M1559.75 198.614H1629.97M1559.75 198.614L1543.22 185.706M1559.75 198.614H1489.53M1559.75 198.614L1577.19 212.235M1629.97 198.614L1611.6 185.706M1629.97 198.614L1649.35 212.235M1629.97 198.614H1700.19M1543.22 185.706H1611.6M1543.22 185.706H1474.83M1543.22 185.706L1527.53 173.456M1611.6 185.706L1594.17 173.456M1611.6 185.706H1679.99M1498.44 150.739H1561.84M1498.44 150.739L1484.92 140.188M1498.44 150.739H1435.03M1498.44 150.739L1512.62 161.816M1561.84 150.739L1546.83 140.188M1561.84 150.739L1577.61 161.816M1561.84 150.739H1625.25M1484.92 140.188H1546.83M1484.92 140.188H1423.02M1484.92 140.188L1472.03 130.125M1546.83 140.188L1532.51 130.125M1546.83 140.188H1608.74M1447.97 111.332H1505.77M1447.97 111.332L1436.72 102.547M1447.97 111.332H1390.17M1447.97 111.332L1459.73 120.516M1505.77 111.332L1493.27 102.547M1505.77 111.332L1518.84 120.516M1505.77 111.332H1563.57M1436.72 102.547H1493.27M1436.72 102.547H1380.16M1436.72 102.547L1425.94 94.1323M1493.27 102.547L1481.29 94.1323M1493.27 102.547H1549.82M1405.7 78.3293H1458.81M1405.7 78.3293L1396.19 70.8998M1405.7 78.3293H1352.6M1405.7 78.3293L1415.61 86.0668M1458.81 78.3293L1448.23 70.8998M1458.81 78.3293L1469.82 86.0668M1458.81 78.3293H1511.91M1396.19 70.8998H1448.23M1396.19 70.8998H1344.14M1396.19 70.8998L1387.04 63.7603M1448.23 70.8998L1438.07 63.7603M1448.23 70.8998H1500.28M1369.79 50.2859H1418.9M1369.79 50.2859L1361.63 43.9217M1369.79 50.2859H1320.67M1369.79 50.2859L1371.87 51.9142L1372.92 52.7349L1378.25 56.8937M1418.9 50.2859L1409.84 43.9217M1418.9 50.2859L1428.3 56.8937M1418.9 50.2859H1468.01M1361.63 43.9217H1409.84M1361.63 43.9217H1313.43M1361.63 43.9217L1353.78 37.7878M1409.84 43.9217L1401.12 37.7878M1409.84 43.9217H1458.05M1338.89 26.1625H1384.57M1338.89 26.1625L1331.83 20.6494M1338.89 26.1625H1293.21M1338.89 26.1625L1346.2 31.8718M1384.57 26.1625L1378.66 22.0104L1377.69 21.328L1376.73 20.6494M1384.57 26.1625L1392.7 31.8718M1384.57 26.1625H1430.25M1331.83 20.6494H1376.73M1331.83 20.6494L1325.85 15.9788L1325.01 15.3229M1331.83 20.6494H1286.93M1376.73 20.6494H1421.63M1376.73 20.6494L1369.15 15.3229M1840.63 198.614L1816.76 185.706M1840.63 198.614H1770.41M1840.63 198.614L1854.64 206.185M1840.63 198.614H1854.64M1816.76 185.706H1748.37M1816.76 185.706L1794.1 173.456M1816.76 185.706H1854.64M1752.07 150.739H1815.48M1752.07 150.739L1732.55 140.188M1752.07 150.739H1688.66M1752.07 150.739L1772.56 161.816M1815.48 150.739L1794.46 140.188M1815.48 150.739L1837.55 161.816M1815.48 150.739H1854.64M1732.55 140.188H1794.46M1732.55 140.188H1670.64M1732.55 140.188L1713.94 130.125M1794.46 140.188L1774.41 130.125M1794.46 140.188H1854.64M1679.17 111.332H1736.97M1679.17 111.332L1662.92 102.547M1679.17 111.332H1621.37M1679.17 111.332L1696.16 120.516M1736.97 111.332L1719.47 102.547M1736.97 111.332L1755.27 120.516M1736.97 111.332H1794.78M1662.92 102.547H1719.47M1662.92 102.547H1606.37M1662.92 102.547L1647.35 94.1323M1719.47 102.547L1702.71 94.1323M1719.47 102.547H1776.02M1618.12 78.3293H1671.23M1618.12 78.3293L1604.38 70.8998M1618.12 78.3293H1565.02M1618.12 78.3293L1632.43 86.0668M1671.23 78.3293L1656.42 70.8998M1671.23 78.3293L1686.64 86.0668M1671.23 78.3293H1724.33M1604.38 70.8998H1656.42M1604.38 70.8998H1552.33M1604.38 70.8998L1591.17 63.7603M1656.42 70.8998L1642.2 63.7603M1656.42 70.8998H1708.47M1566.24 50.2859H1615.36M1566.24 50.2859L1554.47 43.9217M1566.24 50.2859H1517.13M1566.24 50.2859L1578.47 56.8937M1615.36 50.2859L1602.68 43.9217M1615.36 50.2859L1628.52 56.8937M1615.36 50.2859H1664.47M1554.47 43.9217H1602.68M1554.47 43.9217H1506.26M1554.47 43.9217L1543.12 37.7878M1602.68 43.9217L1590.46 37.7878M1602.68 43.9217H1650.89M1521.62 26.1625H1567.3M1521.62 26.1625L1511.42 20.6494M1521.62 26.1625H1475.94M1521.62 26.1625L1532.18 31.8718M1567.3 26.1625L1556.32 20.6494M1567.3 26.1625L1578.67 31.8718M1567.3 26.1625H1612.98M1511.42 20.6494H1556.32M1511.42 20.6494L1501.57 15.3229M1511.42 20.6494H1466.52M1556.32 20.6494H1601.21M1556.32 20.6494L1545.7 15.3229M1830.54 78.3293L1812.57 70.8998M1830.54 78.3293H1777.44M1830.54 78.3293L1849.26 86.0668M1830.54 78.3293H1854.64M1812.57 70.8998H1760.52M1812.57 70.8998L1795.3 63.7603M1812.57 70.8998H1854.64M1762.7 50.2859H1811.82M1762.7 50.2859L1747.3 43.9217M1762.7 50.2859H1713.59M1762.7 50.2859L1778.69 56.8937M1811.82 50.2859L1795.51 43.9217M1811.82 50.2859L1828.74 56.8937M1811.82 50.2859H1854.64M1747.3 43.9217H1795.51M1747.3 43.9217H1699.1M1747.3 43.9217L1732.47 37.7878M1795.51 43.9217L1779.8 37.7878M1795.51 43.9217H1843.72M1704.34 26.1625H1750.03M1704.34 26.1625L1691.01 20.6494M1704.34 26.1625H1658.66M1704.34 26.1625L1718.16 31.8718M1750.03 26.1625L1735.91 20.6494M1750.03 26.1625L1764.65 31.8718M1750.03 26.1625H1795.71M1691.01 20.6494H1735.91M1691.01 20.6494L1678.12 15.3229M1691.01 20.6494H1646.11M1735.91 20.6494H1780.8M1735.91 20.6494L1722.26 15.3229M1764.65 31.8718L1779.8 37.7878M1764.65 31.8718H1811.14M1764.65 31.8718H1718.16M1795.71 26.1625L1780.8 20.6494M1795.71 26.1625L1811.14 31.8718M1795.71 26.1625H1841.39M1780.8 20.6494H1825.7M1780.8 20.6494L1766.4 15.3229M1722.26 15.3229H1678.12M1722.26 15.3229H1766.4M1722.26 15.3229L1709.07 10.1728M1811.14 31.8718L1827.14 37.7878M1811.14 31.8718H1854.64M1841.39 26.1625L1825.7 20.6494M1841.39 26.1625L1854.64 30.8184M1841.39 26.1625H1854.64M1825.7 20.6494L1810.54 15.3229M1825.7 20.6494H1854.64M1766.4 15.3229H1810.54M1766.4 15.3229L1752.48 10.1728M1810.54 15.3229L1795.88 10.1728M1810.54 15.3229H1854.64M1779.8 37.7878H1827.14M1779.8 37.7878H1732.47M1843.72 43.9217L1827.14 37.7878M1843.72 43.9217L1854.64 47.9593M1843.72 43.9217H1854.64M1827.14 37.7878H1854.64M1732.47 37.7878H1685.13M1732.47 37.7878L1718.16 31.8718M1718.16 31.8718H1671.66M1828.74 56.8937L1846.33 63.7603M1828.74 56.8937H1778.69M1828.74 56.8937H1854.64M1854.79 50.2859H1854.64M1846.33 63.7603H1795.3M1846.33 63.7603L1854.64 67.0054M1846.33 63.7603H1854.64M1795.3 63.7603H1744.26M1795.3 63.7603L1778.69 56.8937M1778.69 56.8937H1728.63M1578.67 31.8718L1590.46 37.7878M1578.67 31.8718H1625.17M1578.67 31.8718H1532.18M1612.98 26.1625L1601.21 20.6494M1612.98 26.1625L1625.17 31.8718M1612.98 26.1625H1658.66M1601.21 20.6494H1646.11M1601.21 20.6494L1589.84 15.3229M1545.7 15.3229H1589.84M1545.7 15.3229L1535.45 10.1728M1545.7 15.3229H1501.57M1625.17 31.8718L1637.79 37.7878M1625.17 31.8718H1671.66M1658.66 26.1625L1646.11 20.6494M1658.66 26.1625L1671.66 31.8718M1646.11 20.6494L1633.98 15.3229M1589.84 15.3229H1633.98M1589.84 15.3229L1578.85 10.1728M1671.66 31.8718L1685.13 37.7878M1678.12 15.3229H1633.98M1678.12 15.3229L1665.66 10.1728M1633.98 15.3229L1622.26 10.1728M1590.46 37.7878H1637.79M1590.46 37.7878H1543.12M1650.89 43.9217L1637.79 37.7878M1650.89 43.9217L1664.47 50.2859M1650.89 43.9217H1699.1M1637.79 37.7878H1685.13M1543.12 37.7878H1495.79M1543.12 37.7878L1532.18 31.8718M1685.13 37.7878L1699.1 43.9217M1532.18 31.8718H1485.68M1664.47 50.2859L1678.58 56.8937M1664.47 50.2859H1713.59M1699.1 43.9217L1713.59 50.2859M1713.59 50.2859L1728.63 56.8937M1628.52 56.8937L1642.2 63.7603M1628.52 56.8937H1678.58M1628.52 56.8937H1578.47M1678.58 56.8937L1693.23 63.7603M1678.58 56.8937H1728.63M1728.63 56.8937L1744.26 63.7603M1642.2 63.7603H1693.23M1642.2 63.7603H1591.17M1708.47 70.8998L1693.23 63.7603M1708.47 70.8998L1724.33 78.3293M1708.47 70.8998H1760.52M1693.23 63.7603H1744.26M1591.17 63.7603H1540.14M1591.17 63.7603L1578.47 56.8937M1744.26 63.7603L1760.52 70.8998M1578.47 56.8937H1528.41M1724.33 78.3293L1740.85 86.0668M1724.33 78.3293H1777.44M1760.52 70.8998L1777.44 78.3293M1777.44 78.3293L1795.05 86.0668M1686.64 86.0668L1702.71 94.1323M1686.64 86.0668H1740.85M1686.64 86.0668H1632.43M1740.85 86.0668L1758.06 94.1323M1740.85 86.0668H1795.05M1795.05 86.0668L1813.42 94.1323M1795.05 86.0668H1849.26M1849.26 86.0668H1854.64M1849.26 86.0668L1854.64 88.2915M1702.71 94.1323H1758.06M1702.71 94.1323H1647.35M1776.02 102.547L1758.06 94.1323M1776.02 102.547L1794.78 111.332M1776.02 102.547H1832.57M1758.06 94.1323H1813.42M1647.35 94.1323H1592M1647.35 94.1323L1632.43 86.0668M1813.42 94.1323L1832.57 102.547M1813.42 94.1323H1854.64M1632.43 86.0668H1578.23M1794.78 111.332L1814.38 120.516M1794.78 111.332H1852.58M1832.57 102.547L1852.58 111.332M1832.57 102.547H1854.64M1854.93 94.1323H1854.64M1852.58 111.332L1854.64 112.239M1852.58 111.332H1854.64M1755.27 120.516L1774.41 130.125M1755.27 120.516H1814.38M1755.27 120.516H1696.16M1814.38 120.516L1834.89 130.125M1814.38 120.516H1854.64M1855.14 112.458L1854.64 112.239M1774.41 130.125H1834.89M1774.41 130.125H1713.94M1834.89 130.125H1854.64M1834.89 130.125L1854.64 139.379M1713.94 130.125H1653.46M1713.94 130.125L1696.16 120.516M1696.16 120.516H1637.05M1837.55 161.816H1772.56M1837.55 161.816L1854.64 170.396M1837.55 161.816H1854.64M1855.11 150.739H1854.64M1772.56 161.816H1707.58M1772.56 161.816L1794.1 173.456M1854.83 170.491L1854.64 170.396M1392.7 31.8718L1401.12 37.7878M1392.7 31.8718H1439.19M1392.7 31.8718H1346.2M1430.25 26.1625L1421.63 20.6494M1430.25 26.1625L1439.19 31.8718M1430.25 26.1625H1475.94M1421.63 20.6494H1466.52M1421.63 20.6494L1413.29 15.3229M1369.15 15.3229H1413.29M1369.15 15.3229L1366.37 13.3715L1361.82 10.1728M1369.15 15.3229H1325.01M1439.19 31.8718L1448.45 37.7878M1439.19 31.8718H1485.68M1475.94 26.1625L1466.52 20.6494M1475.94 26.1625L1485.68 31.8718M1466.52 20.6494L1457.43 15.3229M1413.29 15.3229H1457.43M1413.29 15.3229L1405.23 10.1728M1485.68 31.8718L1495.79 37.7878M1501.57 15.3229L1492.04 10.1728M1501.57 15.3229H1457.43M1457.43 15.3229L1456.31 14.669L1454.09 13.3715L1448.63 10.1728M1401.12 37.7878H1448.45M1401.12 37.7878H1353.78M1458.05 43.9217L1448.45 37.7878M1458.05 43.9217L1468.01 50.2859M1458.05 43.9217H1506.26M1448.45 37.7878H1495.79M1353.78 37.7878H1306.44M1353.78 37.7878L1346.2 31.8718M1495.79 37.7878L1506.26 43.9217M1346.2 31.8718H1299.71M1468.01 50.2859L1478.36 56.8937M1468.01 50.2859H1517.13M1506.26 43.9217L1507.6 44.7036L1517.13 50.2859M1517.13 50.2859L1528.41 56.8937M1428.3 56.8937L1429.5 57.7382L1438.07 63.7603M1428.3 56.8937H1478.36M1428.3 56.8937H1378.25M1478.36 56.8937L1489.11 63.7603M1478.36 56.8937H1528.41M1528.41 56.8937L1540.14 63.7603M1438.07 63.7603H1489.11M1438.07 63.7603H1387.04M1500.28 70.8998L1489.11 63.7603M1500.28 70.8998L1511.91 78.3293M1500.28 70.8998H1552.33M1489.11 63.7603H1540.14M1387.04 63.7603H1336.01M1387.04 63.7603L1378.25 56.8937M1540.14 63.7603L1552.33 70.8998M1378.25 56.8937H1328.19M1511.91 78.3293L1524.02 86.0668M1511.91 78.3293H1565.02M1552.33 70.8998L1565.02 78.3293M1565.02 78.3293L1578.23 86.0668M1469.82 86.0668L1481.29 94.1323M1469.82 86.0668H1524.02M1469.82 86.0668H1415.61M1524.02 86.0668L1536.65 94.1323M1524.02 86.0668H1578.23M1578.23 86.0668L1592 94.1323M1481.29 94.1323H1536.65M1481.29 94.1323H1425.94M1549.82 102.547L1536.65 94.1323M1549.82 102.547L1563.57 111.332M1549.82 102.547H1606.37M1536.65 94.1323H1592M1425.94 94.1323H1370.59M1425.94 94.1323L1415.61 86.0668M1592 94.1323L1606.37 102.547M1415.61 86.0668H1361.4M1563.57 111.332L1577.95 120.516M1563.57 111.332H1621.37M1606.37 102.547L1621.37 111.332M1621.37 111.332L1637.05 120.516M1518.84 120.516L1532.51 130.125M1518.84 120.516H1577.95M1518.84 120.516H1459.73M1577.95 120.516L1592.99 130.125M1577.95 120.516H1637.05M1637.05 120.516L1653.46 130.125M1532.51 130.125H1592.99M1532.51 130.125H1472.03M1608.74 140.188L1592.99 130.125M1608.74 140.188L1625.25 150.739M1608.74 140.188H1670.64M1592.99 130.125H1653.46M1472.03 130.125H1411.56M1472.03 130.125L1459.73 120.516M1653.46 130.125L1670.64 140.188M1459.73 120.516H1400.62M1625.25 150.739L1642.59 161.816M1625.25 150.739H1688.66M1670.64 140.188L1688.66 150.739M1688.66 150.739L1707.58 161.816M1577.61 161.816L1594.17 173.456M1577.61 161.816H1642.59M1577.61 161.816H1512.62M1642.59 161.816L1660.81 173.456M1642.59 161.816H1707.58M1707.58 161.816L1727.45 173.456M1594.17 173.456H1660.81M1594.17 173.456H1527.53M1679.99 185.706L1660.81 173.456M1679.99 185.706L1700.19 198.614M1679.99 185.706H1748.37M1660.81 173.456H1727.45M1527.53 173.456H1460.89M1527.53 173.456L1512.62 161.816M1727.45 173.456L1748.37 185.706M1727.45 173.456H1794.1M1512.62 161.816H1447.64M1700.19 198.614L1721.51 212.235M1700.19 198.614H1770.41M1748.37 185.706L1770.41 198.614M1794.1 173.456H1854.64M1770.41 198.614L1793.67 212.235M1649.35 212.235L1669.83 226.628M1649.35 212.235H1721.51M1649.35 212.235H1577.19M1721.51 212.235L1744.04 226.628M1721.51 212.235H1793.67M1793.67 212.235L1818.25 226.628M1793.67 212.235H1854.64M1669.83 226.628H1744.04M1669.83 226.628H1595.63M1767.89 241.863L1744.04 226.628M1767.89 241.863L1793.17 258.014M1767.89 241.863H1844.26M1744.04 226.628H1818.25M1595.63 226.628H1521.42M1595.63 226.628L1577.19 212.235M1818.25 226.628L1844.26 241.863M1818.25 226.628H1854.64M1577.19 212.235H1505.03M1793.17 258.014L1820.02 275.168M1793.17 258.014H1854.64M1844.26 241.863H1854.64M1844.26 241.863L1854.64 247.94M1738.91 275.168L1764.88 293.42M1738.91 275.168H1820.02M1738.91 275.168H1657.79M1820.02 275.168L1848.59 293.42M1820.02 275.168H1854.64M1764.88 293.42H1848.59M1764.88 293.42H1681.17M1848.59 293.42L1854.64 297.286M1848.59 293.42H1854.64M1681.17 293.42H1597.45M1681.17 293.42L1657.79 275.168M1657.79 275.168H1576.68M1853.84 355.935H1761.23M1853.84 355.935H1854.64M1853.84 355.935L1854.64 356.5M1761.23 355.935H1668.62M1761.23 355.935L1791.84 379.835M1206.72 31.8718L1208.59 34.065L1209.22 34.8033L1211.77 37.7878M1206.72 31.8718H1253.21M1206.72 31.8718H1160.23M1247.53 26.1625L1243.39 22.0104L1242.04 20.6494M1247.53 26.1625L1252.49 31.1468L1253.21 31.8718M1247.53 26.1625H1293.21M1242.04 20.6494H1286.93M1242.04 20.6494L1236.73 15.3229M1192.59 15.3229H1236.73M1192.59 15.3229L1190.92 13.3715L1188.19 10.1728M1192.59 15.3229H1148.45M1253.21 31.8718L1254.67 33.3304L1259.11 37.7878M1253.21 31.8718H1299.71M1293.21 26.1625L1286.93 20.6494M1293.21 26.1625L1299.71 31.8718M1286.93 20.6494L1282.37 16.6375L1280.87 15.3229M1236.73 15.3229H1280.87M1236.73 15.3229L1231.6 10.1728M1299.71 31.8718L1306.44 37.7878M1325.01 15.3229L1324.17 14.669L1318.41 10.1728M1325.01 15.3229H1280.87M1280.87 15.3229L1278.65 13.3715L1275.01 10.1728M1211.77 37.7878H1259.11M1211.77 37.7878H1164.43M1265.22 43.9217L1259.11 37.7878M1265.22 43.9217L1271.56 50.2859M1265.22 43.9217H1313.43M1259.11 37.7878H1306.44M1164.43 37.7878H1117.1M1164.43 37.7878L1160.23 31.8718M1306.44 37.7878L1313.43 43.9217M1160.23 31.8718H1113.73M1271.56 50.2859L1275.64 54.3869L1276.47 55.2181L1278.14 56.8937M1271.56 50.2859H1320.67M1313.43 43.9217L1320.67 50.2859M1320.67 50.2859L1328.19 56.8937M1228.08 56.8937L1233.95 63.7603M1228.08 56.8937H1278.14M1228.08 56.8937H1178.03M1278.14 56.8937L1284.98 63.7603M1278.14 56.8937H1328.19M1328.19 56.8937L1336.01 63.7603M1233.95 63.7603H1284.98M1233.95 63.7603H1182.91M1292.09 70.8998L1287.61 66.4045L1286.73 65.5184L1284.98 63.7603M1292.09 70.8998L1299.49 78.3293M1292.09 70.8998H1344.14M1284.98 63.7603H1336.01M1182.91 63.7603H1131.88M1182.91 63.7603L1178.03 56.8937M1336.01 63.7603L1344.14 70.8998M1178.03 56.8937H1127.97M1299.49 78.3293L1307.2 86.0668M1299.49 78.3293H1352.6M1344.14 70.8998L1352.6 78.3293M1352.6 78.3293L1361.4 86.0668M1252.99 86.0668L1256.4 90.0569L1257.26 91.0682L1259.88 94.1323M1252.99 86.0668H1307.2M1252.99 86.0668H1198.79M1307.2 86.0668L1315.23 94.1323M1307.2 86.0668H1361.4M1361.4 86.0668L1370.59 94.1323M1259.88 94.1323H1315.23M1259.88 94.1323H1204.52M1323.61 102.547L1315.23 94.1323M1323.61 102.547L1332.37 111.332M1323.61 102.547H1380.16M1315.23 94.1323H1370.59M1204.52 94.1323H1149.17M1204.52 94.1323L1203.07 92.0842L1198.79 86.0668M1370.59 94.1323L1380.16 102.547M1198.79 86.0668H1144.58M1332.37 111.332L1341.51 120.516M1332.37 111.332H1390.17M1380.16 102.547L1390.17 111.332M1390.17 111.332L1400.62 120.516M1282.4 120.516L1290.61 130.125M1282.4 120.516H1341.51M1282.4 120.516H1223.3M1341.51 120.516L1351.08 130.125M1341.51 120.516H1400.62M1400.62 120.516L1411.56 130.125M1290.61 130.125H1351.08M1290.61 130.125H1230.13M1361.11 140.188L1351.08 130.125M1361.11 140.188L1371.62 150.739M1361.11 140.188H1423.02M1351.08 130.125H1411.56M1230.13 130.125H1169.66M1230.13 130.125L1223.3 120.516M1411.56 130.125L1423.02 140.188M1223.3 120.516H1164.19M1371.62 150.739L1382.65 161.816M1371.62 150.739H1435.03M1423.02 140.188L1435.03 150.739M1435.03 150.739L1447.64 161.816M1317.67 161.816L1327.61 173.456M1317.67 161.816H1382.65M1317.67 161.816H1252.68M1382.65 161.816L1394.25 173.456M1382.65 161.816H1447.64M1447.64 161.816L1460.89 173.456M1327.61 173.456H1394.25M1327.61 173.456H1260.96M1406.45 185.706L1394.25 173.456M1406.45 185.706L1419.31 198.614M1406.45 185.706H1474.83M1394.25 173.456H1460.89M1260.96 173.456H1194.32M1260.96 173.456L1252.68 161.816M1460.89 173.456L1474.83 185.706M1252.68 161.816H1187.7M1419.31 198.614L1432.87 212.235M1419.31 198.614H1489.53M1474.83 185.706L1489.53 198.614M1489.53 198.614L1505.03 212.235M1360.71 212.235L1373 226.628M1360.71 212.235H1432.87M1360.71 212.235H1288.55M1432.87 212.235L1447.21 226.628M1432.87 212.235H1505.03M1505.03 212.235L1521.42 226.628M1373 226.628H1447.21M1373 226.628H1298.79M1462.39 241.863L1447.21 226.628M1462.39 241.863L1478.47 258.014M1462.39 241.863H1538.76M1447.21 226.628H1521.42M1298.79 226.628H1224.59M1298.79 226.628L1288.55 212.235M1521.42 226.628L1538.76 241.863M1288.55 212.235H1216.39M1478.47 258.014L1495.56 275.168M1478.47 258.014H1557.15M1538.76 241.863L1557.15 258.014M1557.15 258.014L1576.68 275.168M1414.45 275.168L1430.03 293.42M1414.45 275.168H1495.56M1414.45 275.168H1333.33M1495.56 275.168L1513.74 293.42M1495.56 275.168H1576.68M1576.68 275.168L1597.45 293.42M1430.03 293.42H1513.74M1430.03 293.42H1346.32M1533.12 312.88L1513.74 293.42M1533.12 312.88L1553.84 333.671M1533.12 312.88H1619.61M1513.74 293.42H1597.45M1346.32 293.42H1262.6M1346.32 293.42L1333.33 275.168M1597.45 293.42L1619.61 312.88M1333.33 275.168H1252.22M1553.84 333.671L1576.01 355.935M1553.84 333.671H1643.28M1619.61 312.88L1643.28 333.671M1643.28 333.671L1668.62 355.935M1483.4 355.935L1503.81 379.835M1483.4 355.935H1576.01M1483.4 355.935H1390.8M1576.01 355.935L1599.82 379.835M1576.01 355.935H1668.62M1668.62 355.935L1695.83 379.835M1503.81 379.835H1599.82M1503.81 379.835H1407.8M1625.44 405.556L1599.82 379.835M1625.44 405.556L1653.09 433.317M1625.44 405.556H1725.11M1599.82 379.835H1695.83M1407.8 379.835H1311.79M1407.8 379.835L1390.8 355.935M1695.83 379.835L1725.11 405.556M1695.83 379.835H1791.84M1390.8 355.935H1298.19M1653.09 433.317L1683.03 463.369M1653.09 433.317H1756.71M1725.11 405.556L1756.71 433.317M1791.84 379.835H1854.64M1756.71 433.317L1790.92 463.369M1756.71 433.317H1854.64M1575.13 463.369L1603 496.008M1575.13 463.369H1683.03M1575.13 463.369H1467.23M1683.03 463.369L1715.54 496.008M1683.03 463.369H1790.92M1790.92 463.369L1828.08 496.008M1790.92 463.369H1854.64M1603 496.008H1715.54M1603 496.008H1490.46M1750.97 531.583L1715.54 496.008M1750.97 531.583L1789.75 570.509M1750.97 531.583H1854.64M1715.54 496.008H1828.08M1490.46 496.008H1377.92M1490.46 496.008L1467.23 463.369M1828.08 496.008H1854.64M1828.08 496.008L1854.64 519.342M1467.23 463.369H1359.34M1789.75 570.509L1832.36 613.285M1789.75 570.509H1854.64M1703.13 613.285L1743.45 660.509M1703.13 613.285H1832.36M1703.13 613.285H1573.9M1832.36 613.285L1854.64 635.657M1832.36 613.285H1854.64M1743.45 660.509H1607.5M1743.45 660.509L1854.64 660.508M1607.5 660.509H1471.55M1607.5 660.509L1573.9 613.285M1573.9 613.285H1444.67M1020.74 31.8718L1020.95 32.5997L1021.16 33.3304L1021.37 34.065L1021.58 34.8033L1022.21 37.0362L1022.43 37.7878M1020.74 31.8718H1067.24M1020.74 31.8718H974.25M1064.8 26.1625L1063.03 22.0104L1062.45 20.6494M1064.8 26.1625L1066.31 29.7071L1067.24 31.8718M1064.8 26.1625H1110.48M1062.45 20.6494H1107.34M1062.45 20.6494L1060.73 16.6375L1060.17 15.3229M1016.03 15.3229L1015.85 14.669L1015.11 12.0835L1014.57 10.1728M1016.03 15.3229H1060.17M1016.03 15.3229H971.895M1067.24 31.8718L1067.55 32.5997L1067.86 33.3304L1068.17 34.065L1068.49 34.8033L1069.76 37.7878M1067.24 31.8718H1113.73M1110.48 26.1625L1108.12 22.0104L1107.34 20.6494M1110.48 26.1625L1113.73 31.8718M1107.34 20.6494L1105.82 17.9634L1104.69 15.9788L1104.31 15.3229M1060.17 15.3229L1059.89 14.669L1059.34 13.3715L1058.79 12.0835L1058.52 11.4438L1057.97 10.1728M1060.17 15.3229H1104.31M1113.73 31.8718L1116.25 36.2884L1117.1 37.7878M1148.45 15.3229L1145.69 11.4438L1144.79 10.1728M1148.45 15.3229H1104.31M1104.31 15.3229L1101.74 10.8069L1101.38 10.1728M1022.43 37.7878H1069.76M1022.43 37.7878H975.092M1072.38 43.9217L1069.76 37.7878M1072.38 43.9217L1075.1 50.2859M1072.38 43.9217H1120.59M1069.76 37.7878H1117.1M975.092 37.7878H927.756M975.092 37.7878L974.25 31.8718M1117.1 37.7878L1120.59 43.9217M974.25 31.8718H927.756M1075.1 50.2859L1075.79 51.9142L1076.85 54.3869L1077.92 56.8937M1075.1 50.2859H1124.21M1120.59 43.9217L1121.04 44.7036L1124.21 50.2859M1124.21 50.2859L1124.68 51.0982L1125.14 51.9142L1125.61 52.7349L1127.97 56.8937M1027.87 56.8937L1029.82 63.7603M1027.87 56.8937H1077.92M1027.87 56.8937H977.81M1077.92 56.8937L1080.85 63.7603M1077.92 56.8937H1127.97M1127.97 56.8937L1130.89 62.0183L1131.39 62.8874L1131.88 63.7603M1029.82 63.7603H1080.85M1029.82 63.7603H978.788M1083.9 70.8998L1084.29 71.8125L1084.68 72.729L1085.07 73.6511L1087.07 78.3293M1083.9 70.8998L1082.36 67.2945L1081.98 66.4045L1081.6 65.5184L1080.85 63.7603M1083.9 70.8998H1135.95M1080.85 63.7603H1131.88M978.788 63.7603H927.756M978.788 63.7603L977.81 56.8937M1131.88 63.7603L1135.95 70.8998M977.81 56.8937H927.756M1087.07 78.3293L1089.95 85.0821L1090.37 86.0668M1087.07 78.3293H1140.18M1135.95 70.8998L1136.99 72.729L1140.18 78.3293M1140.18 78.3293L1141.81 81.1934L1144.58 86.0668M1036.17 86.0668L1037.3 90.0569L1037.59 91.0682L1038.46 94.1323M1036.17 86.0668H1090.37M1036.17 86.0668H981.962M1090.37 86.0668L1093.82 94.1323M1090.37 86.0668H1144.58M1144.58 86.0668L1149.17 94.1323M1038.46 94.1323H1093.82M1038.46 94.1323H983.109M1097.41 102.547L1093.82 94.1323M1097.41 102.547L1101.16 111.332M1097.41 102.547H1153.96M1093.82 94.1323H1149.17M983.109 94.1323H927.756M983.109 94.1323L982.818 92.0842L982.244 88.0515L981.962 86.0668M1149.17 94.1323L1153.96 102.547M981.962 86.0668H927.756M1101.16 111.332L1104.08 118.182L1105.08 120.516M1101.16 111.332H1158.96M1153.96 102.547L1158.96 111.332M1158.96 111.332L1161.55 115.873L1164.19 120.516M1045.97 120.516L1048.71 130.125M1045.97 120.516H1105.08M1045.97 120.516H986.864M1105.08 120.516L1109.18 130.125M1105.08 120.516H1164.19M1164.19 120.516L1169.66 130.125M1048.71 130.125H1109.18M1048.71 130.125H988.231M1113.48 140.188L1112.38 137.628L1109.18 130.125M1113.48 140.188L1117.98 150.739M1113.48 140.188H1175.39M1109.18 130.125H1169.66M988.231 130.125H927.756M988.231 130.125L986.864 120.516M1169.66 130.125L1175.39 140.188M986.864 120.516H927.756M1117.98 150.739L1122.71 161.816M1117.98 150.739H1181.39M1175.39 140.188L1181.39 150.739M1181.39 150.739L1187.7 161.816M1057.73 161.816L1061.04 173.456M1057.73 161.816H1122.71M1057.73 161.816H992.741M1122.71 161.816L1127.68 173.456M1122.71 161.816H1187.7M1187.7 161.816L1194.32 173.456M1061.04 173.456H1127.68M1061.04 173.456H994.397M1132.91 185.706L1127.68 173.456M1132.91 185.706L1138.42 198.614M1132.91 185.706H1201.29M1127.68 173.456H1194.32M994.397 173.456H927.756M994.397 173.456L992.943 163.239L992.741 161.816M1194.32 173.456L1201.29 185.706M992.741 161.816H927.756M1138.42 198.614L1144.23 212.235M1138.42 198.614H1208.64M1201.29 185.706L1206.77 195.323L1208.64 198.614M1208.64 198.614L1216.39 212.235M1072.07 212.235L1076.17 226.628M1072.07 212.235H1144.23M1072.07 212.235H999.916M1144.23 212.235L1150.38 226.628M1144.23 212.235H1216.39M1216.39 212.235L1224.59 226.628M1076.17 226.628H1150.38M1076.17 226.628H1001.96M1156.88 241.863L1150.38 226.628M1156.88 241.863L1163.78 258.014M1156.88 241.863H1233.26M1150.38 226.628H1224.59M1001.96 226.628H927.756M1001.96 226.628L999.916 212.235M1224.59 226.628L1233.26 241.863M999.916 212.235H927.756M1163.78 258.014L1171.1 275.168M1163.78 258.014H1242.45M1233.26 241.863L1242.45 258.014M1242.45 258.014L1252.22 275.168M1089.99 275.168L1095.18 293.42M1089.99 275.168H1171.1M1089.99 275.168H1008.87M1171.1 275.168L1178.89 293.42M1171.1 275.168H1252.22M1252.22 275.168L1262.6 293.42M1095.18 293.42H1178.89M1095.18 293.42H1011.47M1187.2 312.88L1178.89 293.42M1187.2 312.88L1196.08 333.671M1187.2 312.88H1273.68M1178.89 293.42H1262.6M1011.47 293.42H927.756M1011.47 293.42L1008.87 275.168M1262.6 293.42L1273.68 312.88M1008.87 275.168H927.756M1196.08 333.671L1205.58 355.935M1196.08 333.671H1285.52M1273.68 312.88L1285.52 333.671M1285.52 333.671L1298.19 355.935M1112.97 355.935L1119.77 379.835M1112.97 355.935H1205.58M1112.97 355.935H1020.36M1205.58 355.935L1215.78 379.835M1205.58 355.935H1298.19M1298.19 355.935L1311.79 379.835M1119.77 379.835H1215.78M1119.77 379.835H1023.76M1226.76 405.556L1215.78 379.835M1226.76 405.556L1238.61 433.317M1226.76 405.556H1326.43M1215.78 379.835H1311.79M1023.76 379.835H927.756M1023.76 379.835L1020.36 355.935M1311.79 379.835L1326.43 405.556M1020.36 355.935H927.756M1238.61 433.317L1251.44 463.369M1238.61 433.317H1342.23M1326.43 405.556L1342.23 433.317M1342.23 433.317L1359.34 463.369M1143.55 463.369L1152.84 496.008M1143.55 463.369H1251.44M1143.55 463.369H1035.65M1251.44 463.369L1265.38 496.008M1251.44 463.369H1359.34M1359.34 463.369L1377.92 496.008M1152.84 496.008H1265.38M1152.84 496.008H1040.3M1280.56 531.583L1265.38 496.008M1280.56 531.583L1297.18 570.509M1280.56 531.583H1398.17M1265.38 496.008H1377.92M1040.3 496.008H927.756M1040.3 496.008L1035.65 463.369M1377.92 496.008L1398.17 531.583M1035.65 463.369H927.756M1297.18 570.509L1315.44 613.285M1297.18 570.509H1420.32M1398.17 531.583L1420.32 570.509M1420.32 570.509L1444.67 613.285M1186.21 613.285L1199.65 660.509M1186.21 613.285H1315.44M1186.21 613.285H1056.98M1315.44 613.285L1335.6 660.509M1315.44 613.285H1444.67M1444.67 613.285L1471.55 660.509M1335.6 660.509H1199.65M1335.6 660.509H1471.55M1199.65 660.509H1063.7M1063.7 660.509H927.756M1063.7 660.509L1056.98 613.285M1056.98 613.285H927.756M834.768 31.8718L834.56 32.5997L834.353 33.3304L834.143 34.065L833.934 34.8033L833.511 36.2884L833.297 37.0362L833.084 37.7878M834.768 31.8718H881.262M834.768 31.8718H788.273M882.074 26.1625L882.859 20.6494M882.074 26.1625L881.262 31.8718M882.074 26.1625H927.756M882.859 20.6494L882.954 19.9736L883.051 19.3007L883.146 18.6306L883.617 15.3229M882.859 20.6494H927.756M839.478 15.3229L839.663 14.669L840.399 12.0835L840.943 10.1728M839.478 15.3229H883.617M839.478 15.3229H795.339M881.262 31.8718L881.158 32.5997L881.054 33.3304L880.949 34.065L880.42 37.7878M881.262 31.8718H927.756M927.756 26.1625V20.6494M927.756 26.1625V31.8718M927.756 20.6494V15.3229M883.617 15.3229H927.756M883.617 15.3229L883.894 13.3715L883.987 12.7261L884.35 10.1728M927.756 31.8718V37.7878M971.895 15.3229L971.618 13.3715L971.525 12.7261L971.434 12.0835L971.343 11.4438L971.253 10.8069L971.162 10.1728M971.895 15.3229H927.756M927.756 15.3229V10.1728M833.084 37.7878H880.42M833.084 37.7878H785.748M879.547 43.9217L879.435 44.7036L879.324 45.4903L878.641 50.2859M879.547 43.9217L880.42 37.7878M879.547 43.9217H927.756M880.42 37.7878H927.756M785.748 37.7878H738.412M785.748 37.7878L786.387 36.2884L786.706 35.5444L787.022 34.8033L787.337 34.065L787.65 33.3304L787.963 32.5997L788.273 31.8718M927.756 37.7878V43.9217M788.273 31.8718H741.779M878.641 50.2859L877.701 56.8937M878.641 50.2859H927.756M927.756 43.9217V50.2859M927.756 50.2859V56.8937M827.646 56.8937L825.692 63.7603M827.646 56.8937H877.701M827.646 56.8937H777.592M877.701 56.8937L876.724 63.7603M877.701 56.8937H927.756M927.756 56.8937V63.7603M825.692 63.7603H876.724M825.692 63.7603H774.66M875.708 70.8998L876.724 63.7603M875.708 70.8998L874.651 78.3293M875.708 70.8998H927.756M876.724 63.7603H927.756M774.66 63.7603H723.629M774.66 63.7603L777.592 56.8937M927.756 63.7603V70.8998M777.592 56.8937H727.537M874.651 78.3293L874.244 81.1934L873.829 84.1021L873.549 86.0668M874.651 78.3293H927.756M927.756 70.8998V78.3293M927.756 78.3293V86.0668M819.344 86.0668L818.208 90.0569L817.921 91.0682L817.048 94.1323M819.344 86.0668H873.549M819.344 86.0668H765.138M873.549 86.0668L873.267 88.0515L872.694 92.0842L872.402 94.1323M873.549 86.0668H927.756M927.756 86.0668V94.1323M817.048 94.1323H872.402M817.048 94.1323H761.695M871.205 102.547L871.357 101.475L872.402 94.1323M871.205 102.547L869.955 111.332M871.205 102.547H927.756M872.402 94.1323H927.756M761.695 94.1323H706.341M761.695 94.1323L765.138 86.0668M927.756 94.1323V102.547M765.138 86.0668H710.931M869.955 111.332L868.648 120.516M869.955 111.332H927.756M927.756 102.547V111.332M927.756 111.332V120.516M809.539 120.516L806.805 130.125M809.539 120.516H868.648M809.539 120.516H750.431M868.648 120.516L867.28 130.125M868.648 120.516H927.756M927.756 120.516V130.125M806.805 130.125H867.28M806.805 130.125H746.33M865.849 140.188L867.28 130.125M865.849 140.188L864.347 150.739M865.849 140.188H927.756M867.28 130.125H927.756M746.33 130.125H685.854M746.33 130.125L750.431 120.516M927.756 130.125V140.188M750.431 120.516H691.323M864.347 150.739L862.771 161.816M864.347 150.739H927.756M927.756 140.188V150.739M927.756 150.739V161.816M797.785 161.816L794.473 173.456M797.785 161.816H862.771M797.785 161.816H732.801M862.771 161.816L861.115 173.456M862.771 161.816H927.756M927.756 161.816V173.456M794.473 173.456H861.115M794.473 173.456H727.831M859.371 185.706L861.115 173.456M859.371 185.706L857.535 198.614M859.371 185.706H927.756M861.115 173.456H927.756M727.831 173.456H661.189M727.831 173.456L732.801 161.816M927.756 173.456V185.706M732.801 161.816H667.816M857.535 198.614L855.596 212.235M857.535 198.614H927.756M927.756 185.706V198.614M927.756 198.614V212.235M783.437 212.235L779.34 226.628M783.437 212.235H855.596M783.437 212.235H711.277M855.596 212.235L853.548 226.628M855.596 212.235H927.756M927.756 212.235V226.628M779.34 226.628H853.548M779.34 226.628H705.132M851.38 241.863L853.548 226.628M851.38 241.863L849.082 258.014M851.38 241.863H927.756M853.548 226.628H927.756M705.132 226.628H630.925M705.132 226.628L711.277 212.235M927.756 226.628V241.863M711.277 212.235H639.117M849.082 258.014L846.641 275.168M849.082 258.014H927.756M927.756 241.863V258.014M927.756 258.014V275.168M765.526 275.168L760.331 293.42M765.526 275.168H846.641M765.526 275.168H684.411M846.641 275.168L844.044 293.42M846.641 275.168H927.756M927.756 275.168V293.42M760.331 293.42H844.044M760.331 293.42H676.619M841.274 312.88L844.044 293.42M841.274 312.88L838.316 333.671M841.274 312.88H927.756M844.044 293.42H927.756M676.619 293.42H592.907M676.619 293.42L684.411 275.168M927.756 293.42V312.88M684.411 275.168H603.296M838.316 333.671L835.147 355.935M838.316 333.671H927.756M927.756 312.88V333.671M927.756 333.671V355.935M742.54 355.935L735.738 379.835M742.54 355.935H835.147M742.54 355.935H649.932M835.147 355.935L831.747 379.835M835.147 355.935H927.756M927.756 355.935V379.835M735.738 379.835H831.747M735.738 379.835H639.729M828.087 405.556L831.747 379.835M828.087 405.556L824.137 433.317M828.087 405.556H927.756M831.747 379.835H927.756M639.729 379.835H543.72M639.729 379.835L649.932 355.935M927.756 379.835V405.556M649.932 355.935H557.323M824.137 433.317L819.86 463.369M824.137 433.317H927.756M927.756 405.556V433.317M927.756 433.317V463.369M711.964 463.369L702.675 496.008M711.964 463.369H819.86M711.964 463.369H604.068M819.86 463.369L815.216 496.008M819.86 463.369H927.756M927.756 463.369V496.008M702.675 496.008H815.216M702.675 496.008H590.135M810.153 531.583L815.216 496.008M810.153 531.583L804.614 570.509M810.153 531.583H927.756M815.216 496.008H927.756M590.135 496.008H477.594M590.135 496.008L604.068 463.369M927.756 496.008V531.583M604.068 463.369H496.173M804.614 570.509L798.527 613.285M804.614 570.509H927.756M927.756 531.583V570.509M927.756 570.509V613.285M669.299 613.285L655.859 660.509M669.299 613.285H798.527M669.299 613.285H540.07M798.527 613.285L791.807 660.509M798.527 613.285H927.756M927.756 613.285V660.509M791.807 660.509H655.859M791.807 660.509H927.756M655.859 660.509H519.91M519.91 660.509H383.961M519.91 660.509L540.07 613.285M540.07 613.285H410.84M648.791 31.8718L646.289 34.8033L643.741 37.7878M648.791 31.8718H695.285M648.791 31.8718H602.297M699.347 26.1625L703.27 20.6494M699.347 26.1625L695.285 31.8718M699.347 26.1625H745.029M703.27 20.6494H748.167M703.27 20.6494L706.124 16.6375L707.06 15.3229M662.92 15.3229H707.06M662.92 15.3229L664.587 13.3715L667.317 10.1728M662.92 15.3229H618.781M695.285 31.8718L691.077 37.7878M695.285 31.8718H741.779M745.029 26.1625L748.167 20.6494M745.029 26.1625L741.779 31.8718M748.167 20.6494L749.696 17.9634L750.826 15.9788L751.199 15.3229M707.06 15.3229H751.199M707.06 15.3229L709.819 11.4438L710.724 10.1728M741.779 31.8718L739.265 36.2884L738.412 37.7878M795.339 15.3229L795.617 14.669L796.171 13.3715L796.993 11.4438L797.537 10.1728M795.339 15.3229H751.199M751.199 15.3229L751.57 14.669L752.31 13.3715L754.13 10.1728M643.741 37.7878H691.077M643.741 37.7878H596.404M686.711 43.9217L687.267 43.1426L687.818 42.3664L690 39.2995L691.077 37.7878M686.711 43.9217L683.331 48.6719L682.183 50.2859M686.711 43.9217H734.921M691.077 37.7878H738.412M596.404 37.7878H549.068M596.404 37.7878L600.843 33.3304L602.297 31.8718M738.412 37.7878L734.921 43.9217M602.297 31.8718H555.802M682.183 50.2859L681.606 51.0982L681.025 51.9142L679.266 54.3869L678.674 55.2181L677.482 56.8937M682.183 50.2859H731.298M734.921 43.9217L734.475 44.7036L731.298 50.2859M731.298 50.2859L730.836 51.0982L730.371 51.9142L729.904 52.7349L727.537 56.8937M627.427 56.8937L621.565 63.7603M627.427 56.8937H677.482M627.427 56.8937H577.373M677.482 56.8937L672.597 63.7603M677.482 56.8937H727.537M727.537 56.8937L723.629 63.7603M621.565 63.7603H672.597M621.565 63.7603H570.533M667.517 70.8998L672.597 63.7603M667.517 70.8998L662.231 78.3293M667.517 70.8998H719.565M672.597 63.7603H723.629M570.533 63.7603H519.501M570.533 63.7603L577.373 56.8937M723.629 63.7603L719.565 70.8998M577.373 56.8937H527.317M662.231 78.3293L656.726 86.0668M662.231 78.3293H715.336M719.565 70.8998L718.523 72.729L715.336 78.3293M715.336 78.3293L713.705 81.1934L712.049 84.1021L710.931 86.0668M602.519 86.0668L599.112 90.0569L595.633 94.1323M602.519 86.0668H656.726M602.519 86.0668H548.313M656.726 86.0668L650.987 94.1323M656.726 86.0668H710.931M710.931 86.0668L706.341 94.1323M595.633 94.1323H650.987M595.633 94.1323H540.28M645.001 102.547L650.987 94.1323M645.001 102.547L638.749 111.332M645.001 102.547H701.551M650.987 94.1323H706.341M540.28 94.1323H484.926M540.28 94.1323L548.313 86.0668M706.341 94.1323L701.551 102.547M548.313 86.0668H494.108M638.749 111.332L637.142 113.59L632.215 120.516M638.749 111.332H696.55M701.551 102.547L696.55 111.332M696.55 111.332L695.91 112.458L693.966 115.873L691.323 120.516M573.107 120.516L564.903 130.125M573.107 120.516H632.215M573.107 120.516H513.999M632.215 120.516L625.379 130.125M632.215 120.516H691.323M691.323 120.516L685.854 130.125M564.903 130.125H625.379M564.903 130.125H504.428M618.219 140.188L622.733 133.844L625.379 130.125M618.219 140.188L610.711 150.739M618.219 140.188H680.126M625.379 130.125H685.854M504.428 130.125H443.952M504.428 130.125L513.999 120.516M685.854 130.125L680.126 140.188M513.999 120.516H454.891M610.711 150.739L602.83 161.816M610.711 150.739H674.12M680.126 140.188L674.12 150.739M674.12 150.739L667.816 161.816M537.845 161.816L527.906 173.456M537.845 161.816H602.83M537.845 161.816H472.861M602.83 161.816L594.548 173.456M602.83 161.816H667.816M667.816 161.816L661.189 173.456M527.906 173.456H594.548M527.906 173.456H461.265M585.833 185.706L594.548 173.456M585.833 185.706L576.649 198.614M585.833 185.706H654.217M594.548 173.456H661.189M461.265 173.456H394.624M461.265 173.456L472.861 161.816M661.189 173.456L654.217 185.706M472.861 161.816H407.875M576.649 198.614L566.958 212.235M576.649 198.614H646.87M654.217 185.706L646.87 198.614M646.87 198.614L639.117 212.235M494.798 212.235L482.509 226.628M494.798 212.235H566.958M494.798 212.235H422.638M566.958 212.235L556.717 226.628M566.958 212.235H639.117M639.117 212.235L630.925 226.628M482.509 226.628H556.717M482.509 226.628H408.301M545.877 241.863L556.717 226.628M545.877 241.863L534.386 258.014M545.877 241.863H622.253M556.717 226.628H630.925M408.301 226.628H334.093M408.301 226.628L422.638 212.235M630.925 226.628L622.253 241.863M422.638 212.235H350.479M534.386 258.014L522.181 275.168M534.386 258.014H613.06M622.253 241.863L613.06 258.014M613.06 258.014L603.296 275.168M441.066 275.168L425.482 293.42M441.066 275.168H522.181M441.066 275.168H359.951M522.181 275.168L509.195 293.42M522.181 275.168H603.296M603.296 275.168L592.907 293.42M425.482 293.42H509.195M425.482 293.42H341.77M495.349 312.88L509.195 293.42M495.349 312.88L480.556 333.671M495.349 312.88H581.831M509.195 293.42H592.907M341.77 293.42H258.058M341.77 293.42L359.951 275.168M592.907 293.42L581.831 312.88M359.951 275.168H278.835M480.556 333.671L464.716 355.935M480.556 333.671H569.996M581.831 312.88L569.996 333.671M569.996 333.671L557.323 355.935M372.107 355.935L351.702 379.835M372.107 355.935H464.716M372.107 355.935H279.499M464.716 355.935L447.711 379.835M464.716 355.935H557.323M557.323 355.935L543.72 379.835M351.702 379.835H447.711M351.702 379.835H255.693M429.41 405.556L447.711 379.835M429.41 405.556L409.659 433.317M429.41 405.556H529.079M447.711 379.835H543.72M255.693 379.835H159.684M255.693 379.835L279.499 355.935M543.72 379.835L529.079 405.556M279.499 355.935H186.89M409.659 433.317L388.277 463.369M409.659 433.317H513.278M529.079 405.556L513.278 433.317M513.278 433.317L496.173 463.369M280.381 463.369L252.514 496.008M280.381 463.369H388.277M280.381 463.369H172.485M388.277 463.369L365.054 496.008M388.277 463.369H496.173M496.173 463.369L477.594 496.008M252.514 496.008H365.054M252.514 496.008H139.974M339.743 531.583L365.054 496.008M339.743 531.583L312.046 570.509M339.743 531.583H457.345M365.054 496.008H477.594M139.974 496.008H27.4333M139.974 496.008L172.485 463.369M477.594 496.008L457.345 531.583M172.485 463.369H64.5898M312.046 570.509L281.612 613.285M312.046 570.509H435.188M457.345 531.583L435.188 570.509M435.188 570.509L410.84 613.285M152.383 613.285L112.064 660.509M152.383 613.285H281.612M152.383 613.285H23.1541M281.612 613.285L248.013 660.509M281.612 613.285H410.84M410.84 613.285L383.961 660.509M248.013 660.509H112.064M248.013 660.509H383.961M112.064 660.509L0.870266 660.508M23.1541 613.285L0.870266 635.657M23.1541 613.285H0.870266M462.815 31.8718L454.396 37.7878M462.815 31.8718H509.309M462.815 31.8718H416.321M516.62 26.1625L523.681 20.6494M516.62 26.1625L509.309 31.8718M516.62 26.1625H562.302M523.681 20.6494H568.578M523.681 20.6494L530.503 15.3229M486.363 15.3229H530.503M486.363 15.3229L489.141 13.3715L493.692 10.1728M486.363 15.3229H442.224M509.309 31.8718L501.732 37.7878M509.309 31.8718H555.802M562.302 26.1625L568.578 20.6494M562.302 26.1625L555.802 31.8718M568.578 20.6494L573.146 16.6375L574.642 15.3229M530.503 15.3229L531.339 14.669L537.099 10.1728M530.503 15.3229H574.642M555.802 31.8718L549.068 37.7878M618.781 15.3229L623.911 10.1728M618.781 15.3229H574.642M574.642 15.3229L576.864 13.3715L580.505 10.1728M454.396 37.7878H501.732M454.396 37.7878H407.06M493.877 43.9217L501.732 37.7878M493.877 43.9217L485.726 50.2859M493.877 43.9217H542.085M501.732 37.7878H549.068M407.06 37.7878H359.725M407.06 37.7878L416.321 31.8718M549.068 37.7878L542.085 43.9217M416.321 31.8718H369.827M485.726 50.2859L483.639 51.9142L477.262 56.8937M485.726 50.2859H534.84M542.085 43.9217L534.84 50.2859M534.84 50.2859L527.317 56.8937M427.208 56.8937L426.008 57.7382L417.438 63.7603M427.208 56.8937H477.262M427.208 56.8937H377.153M477.262 56.8937L468.47 63.7603M477.262 56.8937H527.317M527.317 56.8937L526.357 57.7382L519.501 63.7603M417.438 63.7603H468.47M417.438 63.7603H366.406M459.326 70.8998L468.47 63.7603M459.326 70.8998L449.811 78.3293M459.326 70.8998H511.374M468.47 63.7603H519.501M366.406 63.7603H315.374M366.406 63.7603L377.153 56.8937M519.501 63.7603L511.374 70.8998M377.153 56.8937H327.098M449.811 78.3293L439.901 86.0668M449.811 78.3293H502.916M511.374 70.8998L502.916 78.3293M502.916 78.3293L494.108 86.0668M385.696 86.0668L374.219 94.1323M385.696 86.0668H439.901M385.696 86.0668H331.489M439.901 86.0668L429.572 94.1323M439.901 86.0668H494.108M494.108 86.0668L484.926 94.1323M374.219 94.1323H429.572M374.219 94.1323H318.864M418.796 102.547L429.572 94.1323M418.796 102.547L407.543 111.332M418.796 102.547H475.347M429.572 94.1323H484.926M318.864 94.1323H263.511M318.864 94.1323L331.489 86.0668M484.926 94.1323L475.347 102.547M331.489 86.0668H277.283M407.543 111.332L395.782 120.516M407.543 111.332H465.345M475.347 102.547L465.345 111.332M465.345 111.332L454.891 120.516M336.674 120.516L323.002 130.125M336.674 120.516H395.782M336.674 120.516H277.566M395.782 120.516L383.477 130.125M395.782 120.516H454.891M454.891 120.516L443.952 130.125M323.002 130.125H383.477M323.002 130.125H262.526M370.588 140.188L383.477 130.125M370.588 140.188L357.075 150.739M370.588 140.188H432.496M383.477 130.125H443.952M262.526 130.125H202.051M262.526 130.125L277.566 120.516M443.952 130.125L432.496 140.188M277.566 120.516H218.458M357.075 150.739L342.89 161.816M357.075 150.739H420.484M432.496 140.188L420.484 150.739M420.484 150.739L407.875 161.816M277.905 161.816L261.341 173.456M277.905 161.816H342.89M277.905 161.816H212.92M342.89 161.816L327.982 173.456M342.89 161.816H407.875M407.875 161.816L394.624 173.456M261.341 173.456H327.982M261.341 173.456H194.698M312.293 185.706L327.982 173.456M312.293 185.706L295.763 198.614M312.293 185.706H380.678M327.982 173.456H394.624M194.698 173.456H128.057M194.698 173.456L212.92 161.816M394.624 173.456L380.678 185.706M212.92 161.816H147.935M295.763 198.614L278.319 212.235M295.763 198.614H365.984M380.678 185.706L365.984 198.614M365.984 198.614L350.479 212.235M206.159 212.235L185.678 226.628M206.159 212.235H278.319M206.159 212.235H134M278.319 212.235L259.886 226.628M278.319 212.235H350.479M350.479 212.235L334.093 226.628M185.678 226.628H259.886M185.678 226.628H111.47M240.375 241.863L259.886 226.628M240.375 241.863L219.69 258.014M240.375 241.863H316.75M259.886 226.628H334.093M111.47 226.628H37.2621M111.47 226.628L134 212.235M334.093 226.628L316.75 241.863M134 212.235H61.84M219.69 258.014L197.72 275.168M219.69 258.014H298.364M316.75 241.863L298.364 258.014M298.364 258.014L278.835 275.168M116.605 275.168L90.6333 293.42M116.605 275.168H197.72M116.605 275.168H35.4904M197.72 275.168L174.346 293.42M197.72 275.168H278.835M278.835 275.168L258.058 293.42M90.6333 293.42H174.346M90.6333 293.42H6.92109M149.423 312.88L174.346 293.42M149.423 312.88L122.796 333.671M149.423 312.88H235.904M174.346 293.42H258.058M6.92109 293.42L35.4904 275.168M6.92109 293.42H0.870266M6.92109 293.42L0.870266 297.286M258.058 293.42L235.904 312.88M35.4904 275.168H0.870266M122.796 333.671L94.2829 355.935M122.796 333.671H212.236M235.904 312.88L212.236 333.671M212.236 333.671L186.89 355.935M1.67453 355.935H94.2829M1.67453 355.935H0.870266M1.67453 355.935L0.870266 356.5M94.2829 355.935L63.6745 379.835M94.2829 355.935H186.89M186.89 355.935L159.684 379.835M30.7334 405.556L63.6745 379.835M30.7334 405.556H130.403M30.7334 405.556H0.870266M30.7334 405.556L0.870266 428.874M63.6745 379.835H159.684M63.6745 379.835H0.870266M159.684 379.835L130.403 405.556M130.403 405.556L98.8005 433.317M98.8005 433.317L64.5898 463.369M98.8005 433.317H0.870266M64.5898 463.369L27.4333 496.008M64.5898 463.369H0.870266M27.4333 496.008H0.870266M27.4333 496.008L0.870266 519.342M276.838 31.8718L265.053 37.7878M276.838 31.8718H323.333M276.838 31.8718H230.344M333.893 26.1625L344.092 20.6494M333.893 26.1625L323.333 31.8718M333.893 26.1625H379.575M344.092 20.6494H388.989M344.092 20.6494L353.946 15.3229M309.807 15.3229H353.946M309.807 15.3229L320.066 10.1728M309.807 15.3229H265.668M323.333 31.8718L312.389 37.7878M323.333 31.8718H369.827M379.575 26.1625L388.989 20.6494M379.575 26.1625L369.827 31.8718M388.989 20.6494L398.085 15.3229M353.946 15.3229L355.154 14.669L363.473 10.1728M353.946 15.3229H398.085M369.827 31.8718L359.725 37.7878M442.224 15.3229L450.285 10.1728M442.224 15.3229H398.085M398.085 15.3229L399.2 14.669L406.879 10.1728M265.053 37.7878H312.389M265.053 37.7878H217.717M301.041 43.9217L312.389 37.7878M301.041 43.9217L289.268 50.2859M301.041 43.9217H349.251M312.389 37.7878H359.725M217.717 37.7878H170.381M217.717 37.7878L230.344 31.8718M359.725 37.7878L349.251 43.9217M230.344 31.8718H183.85M289.268 50.2859L277.044 56.8937M289.268 50.2859H338.382M349.251 43.9217L347.914 44.7036L338.382 50.2859M338.382 50.2859L327.098 56.8937M226.989 56.8937L213.31 63.7603M226.989 56.8937H277.044M226.989 56.8937H176.934M277.044 56.8937L264.342 63.7603M277.044 56.8937H327.098M327.098 56.8937L315.374 63.7603M213.31 63.7603H264.342M213.31 63.7603H162.279M251.135 70.8998L264.342 63.7603M251.135 70.8998L237.391 78.3293M251.135 70.8998H303.183M264.342 63.7603H315.374M162.279 63.7603H111.247M162.279 63.7603L176.934 56.8937M315.374 63.7603L303.183 70.8998M176.934 56.8937H126.879M237.391 78.3293L223.078 86.0668M237.391 78.3293H290.496M303.183 70.8998L290.496 78.3293M290.496 78.3293L277.283 86.0668M168.871 86.0668L152.803 94.1323M168.871 86.0668H223.078M168.871 86.0668H114.665M223.078 86.0668L208.158 94.1323M223.078 86.0668H277.283M277.283 86.0668L263.511 94.1323M152.803 94.1323H208.158M152.803 94.1323H97.4498M192.592 102.547L208.158 94.1323M192.592 102.547L176.338 111.332M192.592 102.547H249.143M208.158 94.1323H263.511M97.4498 94.1323H42.0964M97.4498 94.1323L114.665 86.0668M263.511 94.1323L249.143 102.547M114.665 86.0668H60.4593M176.338 111.332L159.349 120.516M176.338 111.332H234.139M249.143 102.547L234.139 111.332M234.139 111.332L218.458 120.516M100.241 120.516L81.0999 130.125M100.241 120.516H159.349M100.241 120.516H41.1338M159.349 120.516L141.575 130.125M159.349 120.516H218.458M218.458 120.516L202.051 130.125M81.0999 130.125H141.575M122.958 140.188L141.575 130.125M122.958 140.188L103.44 150.739M122.958 140.188H184.867M141.575 130.125H202.051M202.051 130.125L184.867 140.188M41.1338 120.516H0.870266M103.44 150.739L82.9498 161.816M103.44 150.739H166.848M184.867 140.188L166.848 150.739M166.848 150.739L147.935 161.816M17.9645 161.816H82.9498M17.9645 161.816H0.870266M17.9645 161.816L0.870266 170.396M82.9498 161.816L61.4152 173.456M82.9498 161.816H147.935M147.935 161.816L128.057 173.456M38.7548 185.706L61.4152 173.456M38.7548 185.706L14.8769 198.614M38.7548 185.706H107.14M38.7548 185.706H0.870266M61.4152 173.456H128.057M61.4152 173.456H0.870266M128.057 173.456L107.14 185.706M0.681993 170.491L0.870266 170.396M14.8769 198.614H85.0981M14.8769 198.614H0.870266M14.8769 198.614L0.870266 206.185M107.14 185.706L85.0981 198.614M85.0981 198.614L61.84 212.235M61.84 212.235L37.2621 226.628M61.84 212.235H0.870266M11.2475 241.863L37.2621 226.628M11.2475 241.863H0.870266M11.2475 241.863L0.870266 247.94M37.2621 226.628H0.870266M90.8622 31.8718L75.7095 37.7878M90.8622 31.8718H137.356M90.8622 31.8718H44.3673M151.167 26.1625L164.503 20.6494M151.167 26.1625L137.356 31.8718M151.167 26.1625H196.849M164.503 20.6494H209.4M164.503 20.6494L177.389 15.3229M133.25 15.3229H177.389M133.25 15.3229L146.441 10.1728M133.25 15.3229H89.1107M137.356 31.8718L123.045 37.7878M137.356 31.8718H183.85M196.849 26.1625L209.4 20.6494M196.849 26.1625L183.85 31.8718M209.4 20.6494L221.528 15.3229M177.389 15.3229H221.528M177.389 15.3229L189.848 10.1728M183.85 31.8718L170.381 37.7878M265.668 15.3229L276.66 10.1728M265.668 15.3229H221.528M221.528 15.3229L233.254 10.1728M75.7095 37.7878H123.045M75.7095 37.7878H28.3737M108.206 43.9217L123.045 37.7878M108.206 43.9217L92.8105 50.2859M108.206 43.9217H156.415M123.045 37.7878H170.381M28.3737 37.7878L44.3673 31.8718M28.3737 37.7878H0.870266M170.381 37.7878L156.415 43.9217M44.3673 31.8718H0.870266M92.8105 50.2859L76.8247 56.8937M92.8105 50.2859H141.925M156.415 43.9217L141.925 50.2859M141.925 50.2859L126.879 56.8937M26.77 56.8937L9.18326 63.7603M26.77 56.8937H76.8247M26.77 56.8937H0.870266M76.8247 56.8937L60.2151 63.7603M76.8247 56.8937H126.879M126.879 56.8937L111.247 63.7603M42.9441 70.8998L60.2151 63.7603M42.9441 70.8998L24.9712 78.3293M42.9441 70.8998H94.9916M42.9441 70.8998H0.870266M60.2151 63.7603H9.18326M60.2151 63.7603H111.247M9.18326 63.7603L0.870266 67.0054M9.18326 63.7603H0.870266M111.247 63.7603L94.9916 70.8998M24.9712 78.3293L6.25296 86.0668M24.9712 78.3293H78.076M24.9712 78.3293H0.870266M94.9916 70.8998L78.076 78.3293M78.076 78.3293L60.4593 86.0668M6.25296 86.0668H60.4593M6.25296 86.0668L0.870266 88.2915M6.25296 86.0668H0.870266M60.4593 86.0668L42.0964 94.1323M22.9388 102.547L42.0964 94.1323M22.9388 102.547L2.93452 111.332M22.9388 102.547H0.870266M42.0964 94.1323H0.870266M0.580611 94.1323H0.870266M2.93452 111.332H0.870266M2.93452 111.332L0.870266 112.239M0.371094 112.458L0.870266 112.239M14.1218 26.1625L29.8113 20.6494M14.1218 26.1625H0.870266M14.1218 26.1625L0.870266 30.8184M29.8113 20.6494L44.9717 15.3229M29.8113 20.6494H0.870266M89.1107 15.3229L103.034 10.1728M89.1107 15.3229H44.9717M44.9717 15.3229L59.628 10.1728M44.9717 15.3229H0.870266M1535.45 10.1728H1578.85M1535.45 10.1728H1492.04M1568.22 5.19134L1570.84 6.42154L1578.85 10.1728M1568.22 5.19134H1610.92M1578.85 10.1728H1622.26M1610.92 5.19134L1613.72 6.42154L1615.13 7.03949L1622.26 10.1728M1622.26 10.1728H1665.66M1665.66 10.1728H1709.07M1492.04 10.1728H1448.63M1709.07 10.1728H1752.48M1752.48 10.1728L1739.01 5.19134M1752.48 10.1728H1795.88M1739.01 5.19134H1781.7M1361.82 10.1728H1405.23M1361.82 10.1728H1318.41M1397.43 5.19134L1399.35 6.42154L1400.32 7.03949L1405.23 10.1728M1397.43 5.19134H1440.13M1405.23 10.1728H1448.63M1440.13 5.19134L1448.63 10.1728M1318.41 10.1728H1275.01M1188.19 10.1728H1231.6M1188.19 10.1728H1144.79M1226.64 5.19134L1227.25 5.80455L1227.86 6.42154L1228.48 7.03949L1231.6 10.1728M1226.64 5.19134H1269.34M1231.6 10.1728H1275.01M1269.34 5.19134L1275.01 10.1728M1144.79 10.1728H1101.38M1014.57 10.1728H1057.97M1014.57 10.1728H971.162M1055.85 5.19134L1057.97 10.1728M1055.85 5.19134H1098.55M1057.97 10.1728H1101.38M1098.55 5.19134L1098.9 5.80455L1099.25 6.42154L1099.6 7.03949L1101.38 10.1728M971.162 10.1728H927.756M840.943 10.1728H884.35M840.943 10.1728H797.537M885.058 5.19134L884.35 10.1728M885.058 5.19134H927.756M884.35 10.1728H927.756M927.756 5.19134V10.1728M797.537 10.1728H754.13M667.317 10.1728H710.724M667.317 10.1728H623.911M714.268 5.19134L713.393 6.42154L711.621 8.91133L710.724 10.1728M714.268 5.19134H756.966M710.724 10.1728H754.13M756.966 5.19134L756.616 5.80455L756.266 6.42154L755.913 7.03949L754.13 10.1728M623.911 10.1728H580.505M493.692 10.1728H537.099M493.692 10.1728H450.285M543.479 5.19134L541.903 6.42154L541.11 7.03949L537.099 10.1728M543.479 5.19134H586.176M537.099 10.1728H580.505M586.176 5.19134L585.477 5.80455L580.505 10.1728M450.285 10.1728H406.879M320.066 10.1728H363.473M320.066 10.1728H276.66M372.688 5.19134L370.413 6.42154L369.268 7.03949L363.473 10.1728M372.688 5.19134H415.386M363.473 10.1728H406.879M415.386 5.19134L414.337 5.80455L406.879 10.1728M276.66 10.1728H233.254M146.441 10.1728H189.848M146.441 10.1728H103.034M201.898 5.19134L189.848 10.1728M201.898 5.19134H244.596M189.848 10.1728H233.254M244.596 5.19134L241.796 6.42154L240.386 7.03949L233.254 10.1728M103.034 10.1728H59.628M31.1089 5.19134L16.2218 10.1728M31.1089 5.19134H73.8065M31.1089 5.19134H0.870266M16.2218 10.1728H59.628M16.2218 10.1728L0.870266 15.3103M16.2218 10.1728H0.870266M73.8065 5.19134L70.3056 6.42154L59.628 10.1728M1781.7 5.19134L1785.21 6.42154L1795.88 10.1728M1795.88 10.1728H1839.29M1839.29 10.1728L1854.64 15.3104M1839.29 10.1728H1854.64M1854.64 247.94V241.863M1854.64 247.94V258.014M1854.64 241.863V226.628M1854.64 258.014V261.024V275.168M1854.64 275.168V293.42M1854.64 130.125V120.516M1854.64 130.125V139.379M1854.64 5.19134V10.1728M1854.64 10.1728V15.3104M1854.64 15.3104L1854.68 15.3229H1854.64M1854.64 15.3104V15.3229M1854.64 15.3229V20.6494M1854.64 20.6494V26.1625M1854.64 26.1625V30.8184M1854.64 30.8184V31.8718M1854.64 31.8718V37.7878M1854.64 37.7878V43.9217M1854.64 43.9217V47.9593M1854.64 47.9593V50.2859M1854.64 50.2859V56.8937M1854.64 56.8937V63.7603M1854.64 63.7603V67.0054M1854.64 67.0054V70.8998M1854.64 70.8998V78.3293M1854.64 78.3293V86.0668M1854.64 86.0668V88.2915M1854.64 88.2915V94.1323M1854.64 94.1323V102.547M1854.64 102.547V111.332M1854.64 111.332V112.239M1854.64 112.239V120.516M1854.64 140.188V150.739M1854.64 140.188V139.379M1854.64 150.739V161.816M1854.64 161.816V170.396M1854.64 170.396V173.456M1854.64 173.456V185.706M1854.64 185.706V198.614M1854.64 198.614V206.185M1854.64 206.185V212.235M1854.64 212.235V226.628M1854.64 293.42V297.286M1854.64 297.286V312.88M1854.64 312.88V333.671M1854.64 333.671V355.935M1854.64 355.935V356.5M1854.64 356.5V379.835M1854.64 379.835V405.556M1854.64 405.556V428.874M1854.64 428.874V433.317M1854.64 433.317V463.369M1854.64 463.369V496.008M1854.64 496.008V519.342M1854.64 519.342V531.583M1854.64 531.583V570.509M1854.64 570.509V613.285M1854.64 613.285V635.657M1854.64 635.657V660.508M1854.64 660.508V660.677H0.870266V660.508M0.870266 140.188V150.739M0.870266 140.188V139.379M0.870266 139.379V130.125M0.870266 130.125V120.516M0.870266 120.516V112.239M0.870266 112.239V111.332M0.870266 111.332V102.547M0.870266 102.547V94.1323M0.870266 94.1323V88.2915M0.870266 88.2915V86.0668M0.870266 86.0668V78.3293M0.870266 78.3293V70.8998M0.870266 70.8998V67.0054M0.870266 67.0054V63.7603M0.870266 63.7603V56.8937M0.870266 56.8937V50.2859M0.870266 50.2859V47.9593M0.870266 47.9593V43.9217M0.870266 43.9217V37.7878M0.870266 37.7878V31.8718M0.870266 31.8718V30.8184M0.870266 30.8184V26.1625M0.870266 26.1625V20.6494M0.870266 20.6494V15.3229M0.870266 15.3229H0.83261L0.870266 15.3103M0.870266 15.3229V15.3103M0.870266 15.3103V10.1728M0.870266 10.1728V5.19134M0.870266 660.508V635.657M0.870266 635.657V613.285M0.870266 613.285V570.51M0.870266 570.51V531.583M0.870266 531.583V519.342M0.870266 519.342V496.008M0.870266 496.008V463.369M0.870266 463.369V433.317M0.870266 433.317V428.874M0.870266 428.874V405.556M0.870266 405.556V379.835M0.870266 379.835V356.5M0.870266 356.5V355.935M0.870266 355.935V333.671M0.870266 333.671V312.88M0.870266 312.88V297.286M0.870266 297.286V293.42M0.870266 293.42V275.168M0.870266 275.168V258.014M0.870266 258.014V247.94M0.870266 247.94V241.863M0.870266 241.863V226.628M0.870266 226.628V212.235M0.870266 212.235V206.185M0.870266 206.185V198.614M0.870266 198.614V185.706M0.870266 185.706V173.456M0.870266 173.456V170.396M0.870266 170.396V161.816M0.870266 161.816V150.739" stroke="url(#paint0_radial_2174_805)" stroke-width="0.738462" stroke-miterlimit="10" stroke-linecap="round" stroke-linejoin="round"/>
</g>
<defs>
<radialGradient id="paint0_radial_2174_805" cx="0" cy="0" r="1" gradientUnits="userSpaceOnUse" gradientTransform="translate(927.756 330.523) rotate(90) scale(239.354 669.645)">
<stop offset="0.665789" stop-color="white"/>
<stop offset="1" stop-color="white" stop-opacity="0"/>
</radialGradient>
</defs>
</svg>
